<?xml version="1.0" encoding="utf-8"?>
<!-- Generator: Adobe Illustrator 21.1.0, SVG Export Plug-In . SVG Version: 6.00 Build 0)  -->
<svg version="1.1" id="Layer_1" xmlns="http://www.w3.org/2000/svg" xmlns:xlink="http://www.w3.org/1999/xlink" x="0px" y="0px"
	 viewBox="0 0 300 600" style="enable-background:new 0 0 300 600;" xml:space="preserve">
<style type="text/css">
	.st0{fill:none;stroke:#D00000;stroke-width:2;stroke-linecap:round;stroke-miterlimit:10;}
	.st1{fill:none;stroke:#D00000;stroke-linecap:round;stroke-miterlimit:10;}
</style>
<g>
</g>
<path class="st0" d="M10.5,14.1C6.2,46.7,5,79.6,6.7,112.5c1.3,25.2,4.4,50.3,6,75.5c1.8,28.7,1.8,57.5,1.7,86.2
	c-0.5,102.3-1.9,204.6-4.3,306.8"/>
<path class="st0" d="M9.4,14.3c30.7,4.4,61.9,2.2,92.9,0.7c60.5-3,121.2-3.1,181.7-0.3"/>
<path class="st0" d="M286,14.1c-8.8,83.2-8.4,167.1-3.1,250.6c0.9,13.8,1.9,27.7,2.3,41.6c0.5,15.9,0.2,31.8-0.1,47.6
	c-0.6,32.4-1.2,64.9-1.8,97.3c-0.8,43.6-1.6,87.4-7.2,130.7"/>
<path class="st0" d="M8.1,580.8c24.9,9.5,52.6,2.9,79.1,0.6c63.8-5.5,128.3,15,191.7,5.5"/>
<path class="st0" d="M7.3,37.8c12-1.2,23.9-2.4,35.9-3.6c12.4-1.3,24.8-2.5,37.2-2.4c24.1,0.3,47.8,6,71.9,6.9
	c44.1,1.6,88.4-12.7,131.9-4.9"/>
<path class="st0" d="M30.9,35.2c-10.2,92.8,1.6,186.5,2.3,279.9c0.2,30.8-0.8,61.6-1.7,92.5c-1.9,58.8-3.8,117.6-5.6,176.4"/>
<path class="st0" d="M263.1,33c2.4,94.7,2.6,189.5,0.5,284.2c-0.4,17.2-0.8,34.3-1.3,51.5c-0.9,32.3-1.7,64.7-2.6,97
	c-1.1,39.8-2.1,79.5-3.2,119.3"/>
<path class="st0" d="M30.4,68.2c14.4,4.5,30,2.8,45,1.5c62.1-5.7,124.8-5.2,186.8,1.2c1.4,0.1,3.1,0.6,3.3,1.9s-2.6,1.5-2,0.3"/>
<path class="st0" d="M61.5,72.3c0.1,55.5,0.2,111,0.3,166.4c0.1,50.5,0.2,101.1,0.2,151.6c0,55.9-0.2,112.3-11.7,167"/>
<path class="st0" d="M24.4,558.3c41.7-0.5,83.5-0.9,125.2-1.4c10-0.1,20-0.2,30-0.9c13.3-1,26.6-3,40-3.2c11.7-0.2,23.5,1,35,3.6"/>
<path class="st0" d="M222.9,67c0.6,17.2,1.2,34.3,1.7,51.5c2.6,76.4,5.2,152.7,5.2,229.1c0,30.2-0.4,60.5-3.9,90.5
	c-2.9,24.4-7.8,48.6-8.7,73.1c-0.5,13.3,0.2,26.7-2.1,39.8"/>
<path class="st0" d="M59.9,303.8c1.8,2.5,5.2,2.9,8.2,3c18.9,0.4,37.7-5.1,56.6-4.1c5.2,0.3,10.3,1,15.4,1.3
	c5.7,0.3,11.4,0.1,17.1-0.1c23.2-0.8,46.4-1.7,69.6-2.5"/>
<path class="st0" d="M61.1,345.8c12.4-1.2,24.8-1.7,37.2-2c42.3-1.2,84.5-1.5,126.8-0.9c1.3,0,2.9-0.3,3.1-1.5s-2.6-0.6-1.5,0.1"/>
<path class="st0" d="M221.7,68.3c-6.2,4.9-10.5,11.7-14.7,18.3c-41.7,64.7-91.3,124.2-147.5,176.8"/>
<path class="st0" d="M58.3,309.5c17.5-15.3,35.1-30.7,50.8-48c10.3-11.3,19.6-23.4,29.2-35.3c25.9-32.3,53.3-63.3,80.6-94.3
	c1.1-1.3,2.8-2.7,4.4-2.1"/>
<path class="st0" d="M227.9,342.7c-24.8,16.3-42.9,40.7-61.6,63.9c-33.1,41-69.5,79.4-108.7,114.6c-0.4,0.4-0.9,0.9-0.7,1.4
	s1.2,0.4,1-0.1"/>
<path class="st0" d="M48.3,557.5c32.8-28.8,62.3-61.2,91.7-93.5c29.7-32.6,59.4-65.2,89.1-97.9"/>
<path class="st1" d="M61,72c2.4,3.2,6.5,4.6,9,7.5"/>
<path class="st1" d="M68.5,79c0,27.5,3.1,55.1,0.5,82.6c-2.4,25.7-1.4,51.1-2.5,76.8c-0.2,4.5-2.2,12.8-0.5,16.1
	c-0.2-0.9,0.3-0.8,0.5-1.6"/>
<path class="st1" d="M67,77.5c0,0.7,0,1.3,0.1,1.9c6.3-1.1,12.8,0.2,19.5-0.4c10.5-1.1,20.3-3,31.1-3c25.7,0,51.1-1.5,76.8-1.5
	c4.6,0,14.5-2,18,0.5"/>
<path class="st1" d="M222.5,130.5c-0.2,4.1-4.4,9.4-6.5,12.7c-4.1,6.5-9,12.7-13.8,18.5c-9.7,12-20.7,22.2-31.4,33.3
	c-5.7,6-9.1,13.6-14.5,19.8c-6.2,7.2-12.8,14.2-18.9,21.5c-11,13.1-22.8,25.8-33.8,38.9C95.2,285.5,85,299.7,74,306.1
	c0.7-0.2,1.3-0.3,2-0.1"/>
<path class="st1" d="M220,137.5c1.6,4.5,0.1,10.8,0,15.6c-0.1,6-0.7,12-1,17.9c-0.5,10.6,1.3,21.2,1,31.8c-0.3,11.3-1,22.6-1,34
	c0,14.5,2.8,28.7,2.5,43c-0.1,6.6-1.6,12.9-1.5,19.7c0.1,0.6-0.3-0.4-0.5-0.6"/>
<path class="st1" d="M61,347.5c2.4,1.8,5.1,4.3,8,5c3.8,0.9,8.6-0.3,12.4-0.5c9-0.4,17.8,0.5,26.7,1c15.5,0.8,31.5-2.8,47.3-3
	c12.5-0.1,24.6-4.1,37.1-3.5c4,0.2,23.9,4.3,23.5,1"/>
<path class="st1" d="M68,352c2.8,3.4,0.8,11.3,0.4,15.5c-0.9,9.3-0.9,19-0.9,28.4c0,16.3,1.4,32.8,0.5,49.1
	c-0.9,16.6-2,33.2-4.3,49.8c-0.9,6.9-2.5,14.5-2.2,21.3c-0.2,0.1,0-0.3,0.5-0.6"/>
<path class="st1" d="M215,348c-2.4,6.8-10.7,10.8-15.9,15.4c-6,5.2-10.4,12.1-15.7,18c-9,9.8-17.5,20.4-26.9,29.7
	c-11.5,11.4-23.3,22.3-34.4,34.1c-11.5,12.3-21.2,26.8-33.8,37.9c-6.9,6.1-13.5,12.4-19.8,19.1c-2.9,3.1-8.2,6.3-10,9.9
	c0.1,1.1,0.6,0.5,1.1,1"/>
<path class="st1" d="M223,373c-3.4,8-2.9,21.8-3.9,30.9c-2.1,18.7-4.4,37.1-5.4,56c-0.6,10.6-2.1,21.1-2.1,31.8
	c0,7.9-0.2,15.1-1.8,22.9c-1.8,8.8-2.4,17.8-3.3,26.4c-0.3,2.5-0.7,3.8,0.5,5.9c1.8,3.1,0-6.9,9,2.1"/>
<path class="st1" d="M58,549.5c11.8-4.5,27.1-3.5,39.6-3.5c19.7,0,39.3-0.5,59-0.5c10.2,0,20.9-0.9,31,0c6,0.5,11.1,2.6,17.3,2.5
	c-0.7-0.1-0.8,0.2-1.3,0.5"/>
<path class="st1" d="M70.3,114.3c10.1-1.6,25.7,0,37.1,0c16.8,0,35.3,4.1,52,1.6c8.5-1.3,22.4-5,30.8-3.5c-0.9,0.8-1.3,0.2-2.5,0.5"
	/>
<path class="st1" d="M68.3,163c7.6-4.2,20.9-1,29.4-1.3c9.8-0.4,19.5-1.1,29.3-0.6c7.9,0.4,15.9-1.7,23.2-0.7"/>
<path class="st1" d="M201,165c3.9-1.8,11.2-3.7,14.7-2"/>
<path class="st1" d="M67,209.7c14.9,0.7,31.5-2.5,46.6-3.4c-0.3-0.7-0.8-1.2-1.3-1.9"/>
<path class="st1" d="M159.7,207c11-4.6,27.2-2.4,39.3-2.7c6.3-0.1,12.4-1.4,18.5-1.9c-0.7,0.6-0.8,1.2-1.2,1.9"/>
<path class="st1" d="M121.7,253.7c11.6-5,31.1-1.6,43.9-2c10.7-0.3,21.6-1,32.2-2c6.3-0.6,13.7,0,19-3.5c0.6,1.4,1.1,2.7,1.6,4.1"/>
<path class="st1" d="M65.7,390.3c15.9-3.1,33.3-0.8,49.4-0.1c12.9,0.5,25.9,0,38.7-0.5c7.7-0.3,14.7-2.2,22.4-1.9
	c0.2,0.8,0.2,1.7,0.1,2.6"/>
<path class="st1" d="M71.7,433.7c12.6,0.1,24.7,2.9,37.2,3.3c5.4,0.2,15.5,1.5,20.1-0.7"/>
<path class="st1" d="M161.7,443c10.2-4.1,26.1-1.9,37.4-3.4c3.3-0.4,12.5-2.4,12.6,0"/>
<path class="st1" d="M68.3,483c-2.7,0.4,2.1,0.1,3,0c2.6-0.2,5.3-1,7.9-1.2c3.5-0.3,7-0.1,10.5-0.1"/>
<path class="st1" d="M124.3,481c2.5-3.1,18.6-1.8,24-2c11.4-0.4,22.7-1.8,34.1-2.4c5.1-0.2,30-3.7,32,3"/>
<path class="st1" d="M91.7,516.3c-1.1,0-2.1,0-3.2,0c12.4,1.1,26.5-2.7,39.1-3.2c18.2-0.7,37.3,0.7,55.2-2.8
	c8.7-1.7,18.1-3.3,26.6-0.8c-0.7,0.2-1.1,0-1.8,0.1"/>
<path class="st1" d="M238.3,285.7c-4.8,16.4-2.7,37.9-2,55c0.2,5.7,0.9,22,9.2,17.8c7-3.6,7.4-19.5,7.8-25.7
	c0.8-10.4,0.3-20.9,1.2-31.4c0.5-5.4,1-10.6-3.1-14.6C247,282.3,236.6,283.2,238.3,285.7z"/>
<path class="st1" d="M255,310.3c-3-7.7-18.2-1.3-21.6,3.7c-7.5,11.2,8.5,18.2,17.8,15c13.5-4.6,6.8-17.7-4.4-18.7
	c-7-0.6-17.9-0.6-15.9,9.3"/>
<g>
</g>
<g>
</g>
<g>
</g>
<g>
</g>
<g>
</g>
<g>
</g>
</svg>
