<?xml version="1.0" encoding="utf-8"?>
<!-- Generator: Adobe Illustrator 21.1.0, SVG Export Plug-In . SVG Version: 6.00 Build 0)  -->
<svg version="1.1" id="Layer_1" xmlns="http://www.w3.org/2000/svg" xmlns:xlink="http://www.w3.org/1999/xlink" x="0px" y="0px"
	 viewBox="0 0 300 600" style="enable-background:new 0 0 300 600;" xml:space="preserve">
<style type="text/css">
	.st0{display:none;}
	.st1{display:inline;}
	.st2{fill:#FFFFFF;stroke:#D00000;stroke-width:2;stroke-miterlimit:10;}
	.st3{fill:none;stroke:#D00000;stroke-width:3;stroke-linecap:round;stroke-miterlimit:10;}
	.st4{fill:none;stroke:#D00000;stroke-width:2;stroke-linecap:round;stroke-miterlimit:10;}
	.st5{fill:#FFFFFF;stroke:#D00000;stroke-width:2;stroke-linecap:round;stroke-miterlimit:10;}
	.st6{fill:#FFFFFF;stroke:#D00000;stroke-width:3;stroke-linecap:round;stroke-miterlimit:10;}
	.st7{fill:none;stroke:#D00000;stroke-linecap:round;stroke-miterlimit:10;}
	.st8{fill:#FFFFFF;stroke:#D00000;stroke-linecap:round;stroke-miterlimit:10;}
	.st9{fill:#FFFFFF;}
	.st10{fill:none;stroke:#D00000;stroke-width:2;stroke-linecap:round;stroke-linejoin:round;stroke-miterlimit:10;}
	.st11{fill:#FFFFFF;stroke:#D00000;stroke-miterlimit:10;}
	.st12{fill:none;stroke:#D00000;stroke-miterlimit:10;}
	.st13{fill:none;stroke:#D00000;stroke-width:3;stroke-linecap:round;stroke-linejoin:round;stroke-miterlimit:10;}
	.st14{fill:none;stroke:#D00000;stroke-linecap:round;stroke-linejoin:round;stroke-miterlimit:10;}
	.st15{fill:#FFFFFF;stroke:#D00000;stroke-width:2;stroke-linecap:round;stroke-linejoin:round;stroke-miterlimit:10;}
</style>
<g id="Layer_1_1_" class="st0">
	<g class="st1">
		<path class="st2" d="M224.5,229.5c11.1,0.5,18.8-5.5,28.3-8.7c0.2,9.2-10,13.7-17.7,13"/>
		<g>
			<polygon class="st3" points="144.2,105.9 218.3,109.3 250,79.5 250,69.9 163,66 144.2,96.3 			"/>
			<polyline class="st4" points="144.2,105.9 163,75.7 250,79.5 			"/>
			<line class="st4" x1="163" y1="66" x2="163" y2="75.7"/>
			<g>
				<path class="st5" d="M158.8,99.2c0,7.3,15.4,13.2,34.2,13.2s34.2-5.9,34.2-13.2v-5.4c0-7.3-15.4-13.2-34.2-13.2
					s-34.2,5.9-34.2,13.2V99.2L158.8,99.2z"/>
				<path class="st5" d="M158.8,99.2c0-7.3,15.4-13.2,34.2-13.2s34.2,5.9,34.2,13.2"/>
				<path class="st6" d="M222.2,228.7V99.2c0-5-13.1-9.1-29.1-9.1s-29.1,4-29.1,9.1v139"/>
				<g>
					<g>
						<path class="st7" d="M167.3,236.8c1.2-0.3,2.3-0.6,3.4-0.9V108.3c0-2.1-0.9-8.7-1.9-8.7s-1.9,6.5-1.9,8.7V237
							C166.9,236.9,167.1,236.9,167.3,236.8z"/>
					</g>
					<path class="st7" d="M180.7,233.4V105.9c0-2.1-1.2-8.7-2.9-8.7s-2.9,6.5-2.9,8.7v128.9C176.8,234.4,178.7,233.9,180.7,233.4z"
						/>
					<g>
						<path class="st7" d="M196.9,228.6V103.5c0-2.1-1.7-8.7-3.8-8.7s-3.8,6.5-3.8,8.7v126.8"/>
					</g>
					<path class="st7" d="M208.1,227.4c1.1-0.2,2.1-0.3,3.3-0.4V105.9c0-2.1-1.2-8.7-2.9-8.7s-2.9,6.5-2.9,8.7v121.9
						C206.2,227.3,207.2,227.2,208.1,227.4z"/>
					<g>
						<path class="st7" d="M219.3,227.4V108.3c0-2.1-0.9-8.7-1.9-8.7s-1.9,6.5-1.9,8.7V227C216.8,227.1,218.1,227.2,219.3,227.4z"/>
					</g>
				</g>
			</g>
		</g>
		<path class="st3" d="M134.1,462c2.4,2.9,9.3,5.3,13.8,6.7c9,2.8,17.6,6.3,27.4,7.3c11.1,1.1,22.6,0,33.5-0.5
			c8.8-0.4,19-2.4,27.4-1.2c8.1,1.2,15.7,1.8,24,1.8"/>
		<path class="st3" d="M91.5,377.8c-0.4-17,13.8-36.7,18.6-52.1c6.1-20,10.7-35,17.9-54.5c3.3-8.8,4.3-15.6,10.4-22
			c2.1-2.2,0.1-2,3.2-3.6c3.1-1.5,5.1-5.5,8.2-5.5c11.1,0,23.1-4.5,33.4-8.5c9.5-3.7,20.2-4.8,30.6-3.7c4.8,0.5,25.3,3.3,24,9.2
			l0.6,2.5c1.9,6.2,1.5,14.5,1.8,21.2c1.1,26.1,8.9,50.5,12.9,75.9c4.3,28.1,5.7,58.1,13.8,85c4.2,13.8,2.5,26,1.1,40.7
			c-0.7,6.5-4,9.6-8,14.8"/>
		<path class="st4" d="M89,261.7c2.3,2.1,2.4,6.4,3,9.5c1.4,7.9,2.8,15.6,3.7,23.6c1.7,14.6,3.2,29.2,5.1,43.8
			c1.8,13.8,2.6,28.9,1.2,42.8"/>
		<path class="st4" d="M104.8,381.8c0-35.5,4.2-71,3.4-106.6c-0.1-5-0.2-10.1-0.5-15.1c-0.1-2.1-1.1-7-0.5-6.2"/>
		<path class="st8" d="M88.7,261.7c1.9-1.5-4-12.4-6.7-14.1c-0.2,2.6,0.7,6.4,1.5,8.9c0.5,1.5,1.2,3.3,2.4,4.3
			C86.8,261.6,87.8,261.5,88.7,261.7z"/>
		<path class="st8" d="M90.2,263.8c-2.4-2.6-0.3-13.6,2.2-15.8C93.8,253.2,93.6,259.7,90.2,263.8z"/>
		<path class="st8" d="M89.9,265.5c-0.1-2.9-8.5-6.2-11.1-6C80.4,263.2,85.1,267.4,89.9,265.5z"/>
		<path class="st8" d="M91.2,265.3c-1.9-1.9,5.1-6.8,6.7-7.6C97.9,262,94.1,264.5,91.2,265.3z"/>
		<path class="st8" d="M90.4,268.9c-1.2-2.8-7.3-3.2-9.8-3.1C80.1,268.3,87.7,271.3,90.4,268.9z"/>
		<path class="st8" d="M91.6,269.2c1.1-1.9,4.6-5.2,6.6-5.8c1.4,2.7-3.3,8.3-6.2,7.9"/>
		<path class="st8" d="M91.4,276.3c-3.2,0.1-10.6-2.3-10.6-6.2C85.1,269.7,88.8,274.4,91.4,276.3z"/>
		<path class="st8" d="M93.5,278.5c0-2.5,3.7-9.2,6.7-8.7C100.8,273.6,96.1,278.6,93.5,278.5z"/>
		<path class="st8" d="M106.9,253.8c0.6-2.3,0.9-5.4,0.3-7.8c-0.6-2.4-2.5-8.5-4.6-9.7c-1.2,3-0.6,9.2,0.4,12.4
			C103.9,251.3,105.2,252,106.9,253.8z"/>
		<path class="st8" d="M107.7,255.1c-0.2-2.5,0.3-5.6,1.4-7.8c1-1.8,3.3-5.9,5.3-6.3C114.5,245.7,110.1,251.5,107.7,255.1z"/>
		<path class="st8" d="M106.9,262.1c-2.2-4.5-7-7.6-8.2-12.7C103.9,250.1,106.9,257.6,106.9,262.1z"/>
		<path class="st8" d="M108.2,263.6c-0.7-4.6,4.7-12.1,9.1-13c0.4,3.1-1.2,6.1-3.1,8.4C112.5,261.2,108.9,262.5,108.2,263.6z"/>
		<path class="st8" d="M107.9,267.2c-2.3-3.9-6-7.2-10.3-8.7c-0.3,2.3,3.3,5.9,4.8,7.4C104,267.5,105.3,268.3,107.9,267.2z"/>
		<path class="st8" d="M108.2,269.2c0.6-3,7.1-8.2,10.1-7.7C119.3,266.6,110,267.3,108.2,269.2z"/>
		<path class="st8" d="M107.7,276.1c0.4-3.9-4-8.8-7.9-9.1C99.8,269.9,103.6,276.5,107.7,276.1z"/>
		<path class="st7" d="M169.2,242.9c5.6-0.5,22.2,8.9,25,13.5"/>
		<path class="st7" d="M173.1,249.2c7,1.7,18.7,9,20.1,12.6c5.2,10.5,13.4,9.2,19.3,14.8"/>
		<path class="st7" d="M164.4,256.4c8.7,0.1,15.2,2.6,21.1,9.2c3.6,3.9,6.2,11.7,11.1,14.2c3.7,1.9,9.1,1.6,13.2,3.9
			c9,5.1,15.7,13.6,21,22.1"/>
		<path class="st7" d="M176.4,273.2c6.2,3,9.7,9.6,15.2,13.2c3.8,2.5,9.4,1.6,13.7,3.8c14.2,7.5,24.3,22.7,34.1,34.9"/>
		<path class="st7" d="M175,283.3c6.2,0.9,19.4,10.6,22.9,19.5"/>
		<path class="st7" d="M204.3,304.4c8.1-1.1,18.6,14.4,23.5,19.6c6.2,6.6,12.3,13.2,17.9,20.3"/>
		<path class="st7" d="M207.2,317.9c7.7,3.1,13.2,15.4,18.7,21.6c6.2,6.8,14,12.2,19.2,19.7"/>
		<path class="st7" d="M247.1,362.1c3.4,5.8,6,8.7,9.1,12.5"/>
		<path class="st7" d="M132.2,280.4c7-2.4,12.5,6.8,14.9,12.1c4.6,10.3,16.3,14.7,21.1,24.9"/>
		<path class="st7" d="M130.8,287.6c10.3,1.2,17.5,17.6,22.7,24.9c2.4,3.4,4.3,3.9,8,6.2c7.3,4.3,10.9,10.1,14.5,17.5"/>
		<path class="st7" d="M133.8,299.3c8.7,3,13.7,13.8,17.8,18.4c3.3,3.6,7.2,6.2,10.9,9.4c7.4,6.5,17.5,16.1,21.6,25"/>
		<path class="st7" d="M140.4,318.9c7.3-1.3,13.7,14.9,18.2,18.4c5.9,4.6,12.3,8.3,17.9,13.4"/>
		<path class="st7" d="M228.3,392.4c2.4,1.6,5.2,2.8,7.2,4.7c3.2,3,5.1,6.6,8,9.6"/>
		<path class="st7" d="M249.3,409.2c4.3,2.3,6.4,13.3,8.3,18.7"/>
		<path class="st7" d="M254.8,413.5c3,4.2,5.7,10.8,9.1,14.4"/>
		<path class="st4" d="M49.1,296.9c3.4,4.3,6.2,10.8,8.7,15.8c4,8.4,7.1,17.6,10.7,26.2c4.1,10.1,8.5,20,12.7,29.9
			c1.2,2.7,1.6,6.6,3.3,8.8"/>
		<path class="st4" d="M81.5,371c-1.9-5.2,3.6-21.5,9.2-22.7C91.3,357.6,90.3,366.7,81.5,371z"/>
		<path class="st4" d="M79.8,370.6c-1.2-2.7-6.2-4.2-8.7-5.8c-4.3-2.7-9.5-4.3-14.6-4.1C57.2,370.3,73,375.8,79.8,370.6z"/>
		<path class="st4" d="M76.9,358.8c-1.4-9,1.8-15.9,7.6-22.4c0.8,5.7,1,9.8-1.8,15C81.3,354,78.1,356.7,76.9,358.8z"/>
		<path class="st4" d="M76.9,358.5c-4-0.8-7.4-4-11.1-6c-2.9-1.5-11-4.8-13.7-2.1c2.3,3.4,9.3,7,13.4,7.6
			C69.2,358.6,73.5,357.6,76.9,358.5z"/>
		<path class="st4" d="M71.2,344.3c-2.4-6.8,3-15.6,8.3-19.5C82.5,332.3,76.3,339.6,71.2,344.3z"/>
		<path class="st4" d="M69.3,343.1c-0.7-6.4-16-10-21.4-9.2C49.5,337.7,65.9,347.7,69.3,343.1z"/>
		<path class="st4" d="M65.1,330.6c-1.4-5.4,5.3-15,10.2-16.9C75.8,320.2,71.7,331,65.1,330.6z"/>
		<path class="st4" d="M64.4,329c-4.1-6.2-12.6-12.4-20.5-10.2c1.8,3.7,6.6,6.9,10.6,8.7C57.7,328.9,60.8,328.2,64.4,329z"/>
		<path class="st4" d="M61.3,319.6c0-7.6,1.9-14.8,8.6-18.8c0.6,4.1-1.8,9.4-3.7,13.1C65,316,62,318,61.3,319.6z"/>
		<path class="st4" d="M61.3,319.3c-3.8-6.2-14.9-13.2-22.4-12.1c0.4,3.4,7.5,7.8,10.4,9.5C52,318.4,56,319.2,61.3,319.3z"/>
		<path class="st4" d="M55.1,308.1c0.1-7.1-2.1-14.2,4.5-19.4C60.6,295.5,63.2,304.6,55.1,308.1z"/>
		<path class="st4" d="M51.1,302.3c-0.3-0.1-0.5-0.7-1-1.2c-1.4-1.6-2.9-2.9-5-3.9c-3.5-1.6-7.6-3-11.6-3.2c1.9,4.2,4.8,8.6,9.8,9.9
			C46.3,304.6,48.5,303.8,51.1,302.3z"/>
		<g>
			<path class="st3" d="M110.8,373.9c9.3-10.7,20.5-21.3,34.5-25.1c8.6-2.3,15.1-0.5,23.7,1.5c14.4,3.5,24.8,4.5,36.3,14.6
				c22,19.5,32.5,46.7,48.2,71c4.4,6.8,3.2,14.4,3.2,22.5c0,15.9-4.9,27.4-22,29.2c-31.8,3.4-72.6-2-100-19.7
				c-10.8-6.9-23.5-16.1-30.9-26.6c-5.6-7.9-3.9-19.4-3-28.7c0.7-6.4,3.3-11.6,5.6-17.6C108.1,390.7,108,382.9,110.8,373.9z"/>
			<path class="st4" d="M193.9,368.7c-6.5,9.1-12.7,19.5-21.8,26.3c-2.7,2-5.8,3.9-8.8,5.4c-2.6,1.2-5.1,3.2-8.5,3.6"/>
			<path class="st4" d="M133,405.9c1.9,0,10.3-0.3,12.2-0.3"/>
			<path class="st4" d="M119.5,378.9c7.7,1.1,15.7,5.3,23.1,8"/>
			<path class="st4" d="M168.3,405.9c6.4,3.7,12.7,9.5,18.4,14.3c7.1,6.2,14.5,11.9,21.7,18"/>
			<path class="st4" d="M217.8,444.1c1.9,2.4,7.9,5.8,12,6.3"/>
			<path class="st7" d="M192,388.2c-1.6,2.4-7.6,5.8-9.8,7.7c-1.9,1.5-13.6,4.8-14.3,6.9"/>
			<path class="st7" d="M194.9,392.7c-4.7,6-10.9,8.7-17,12.8"/>
			<path class="st7" d="M200.3,395c-3.7,5.4-11.9,7.7-16.6,11.8"/>
			<path class="st7" d="M201.2,398.8c-3.5,3.9-6.1,5.6-13.2,8.9"/>
			<path class="st7" d="M208.3,399.1c0.7,2.7-9.7,7.4-12.2,8"/>
			<path class="st7" d="M214.4,403c-3.4,3.5-8.8,5.3-13.5,6.1"/>
			<path class="st7" d="M220.8,403.3c-2.6,3.9-9.7,5.8-14.1,6.4"/>
			<path class="st7" d="M227.6,407.5c-1.4,2.6-7,3.3-9.6,4.1"/>
			<path class="st7" d="M227.9,410.7c-1.3,1-2.8,1.7-4.5,1.9"/>
			<path class="st7" d="M112.5,378.9c1.2,3.9,4.7,5.1,8.7,5.5"/>
			<path class="st7" d="M120.2,380.6c-0.4,4.1,4.5,8.4,8.4,8.4"/>
			<path class="st7" d="M127.9,384.4c2.6,2.8,4.7,10.8,9.9,8.9"/>
			<path class="st7" d="M136.8,388.3c-0.8,3.7,6.6,8.1,9.9,7.7"/>
			<path class="st7" d="M144.5,390.2c1.2,3.6,5.2,6.1,8.7,7"/>
			<path class="st7" d="M112.8,385.7c0.9,3.8,3.9,5.5,7.7,4.1"/>
			<path class="st7" d="M119.9,386c-0.4,3.8,2.2,8.2,6.4,8.4"/>
			<path class="st7" d="M126,391.4c0.3,2.3,2.6,9.1,5.8,7.4"/>
			<path class="st7" d="M131.7,393.4c-1.9,3.7,3.6,9.8,7.4,8"/>
			<path class="st7" d="M137.2,395c1.1,3.6,2.7,6.8,6.7,7.7"/>
			<path class="st7" d="M145.5,397.5c-0.9,3,3.5,5,6.1,4.8"/>
			<path class="st7" d="M151.9,399.4c0.7,0.5,1.3,1.1,1.9,1.6"/>
			<path class="st7" d="M130.8,403.9c1.2,0.9,1,1.9,1.6,3.3c1.9,3.7,5.8,5.8,9.9,4.4"/>
			<path class="st7" d="M141.6,407.8c3.3,5,6.6,6.1,12.2,7.7"/>
			<path class="st7" d="M152.2,408.5c0.1,3.5,5.4,6,8.4,6.1"/>
			<path class="st7" d="M159.3,408.1c1.9,2.9,3.1,5.2,6.7,6.1"/>
			<path class="st7" d="M133.4,414.8c0.2,1.5,0.9,3,1.8,4.3c3.7,5.5,5.4,5.7,11.3,5.6"/>
			<path class="st7" d="M143.6,417.1c0.4,4.7,6.8,10.5,11.5,10.6"/>
			<path class="st7" d="M151.9,418.6c5.4,5.3,7.1,10.8,15.4,12.5"/>
			<path class="st7" d="M163.2,421.2c2.8,2.8,8.7,6,12.5,6.4"/>
			<path class="st7" d="M171.1,418.4c4.8,3.7,9.6,7.9,14.1,11.8"/>
			<path class="st7" d="M134.6,426.7c3.7,7.9,8,10.1,15.7,12.3"/>
			<path class="st7" d="M144.5,428.3c2.5,7.4,11.8,11.8,18,15.7"/>
			<path class="st7" d="M155.5,430.8c1.3,6.7,11.4,9.4,16.3,12.5"/>
			<path class="st7" d="M165.1,432.8c2.2,5.5,11,8.4,15.7,11.2"/>
			<path class="st7" d="M175,433.4c4,3.8,9,6.8,14.4,8.4"/>
			<path class="st7" d="M183,433.1c2.2,2.6,7,4,10.3,4.8"/>
			<path class="st7" d="M136.3,438.5c3,4.5,9.2,9.4,13.4,11.9"/>
			<path class="st7" d="M143.9,439.8c6.2,9.1,17.8,14.1,27.9,17.3"/>
			<path class="st7" d="M154.8,445.3c0.1,2.2,5.5,4.2,7.3,5.1c7.2,3.6,14.4,5.3,21.9,8.1"/>
			<path class="st7" d="M167,445.9c1.2,1.2,3.1,2.3,4.7,3.1c8.3,4,18.2,4.8,27,7.5"/>
			<path class="st7" d="M178.2,447.9c1.2,1.1,17.9,5.6,24.7,7.3"/>
			<path class="st7" d="M134.9,445.6c3.5,8.4,16.2,8.6,22.4,13.7"/>
			<path class="st7" d="M140.9,447.5c0.8,1.9,7,5.4,8.8,6.4c5.1,2.6,10.5,4.3,16,5.8"/>
			<path class="st7" d="M132.4,452c6.1,4.7,12.4,7.8,19.5,11.2"/>
			<path class="st7" d="M132,456.8c2.1,2.3,4.3,5.3,6.9,7.3c2.2,1.7,4.6,3.2,6.9,4.9c5,3.7,11.2,3.5,16.2,7"/>
			<path class="st7" d="M149,464.8c11.1,6.3,23.6,11.2,35.9,15.4"/>
			<path class="st7" d="M158.4,463.2c3.3,1.9,6.6,3.9,10,5.8c8.7,4.9,19.4,5.8,29.1,7.7"/>
			<path class="st7" d="M168,461.9c1.2,1.9,4.4,2.1,6.6,2.7c6.7,1.7,13.5,4.1,20.3,5"/>
			<path class="st7" d="M178.2,459.4c2.1,1.8,6.2,2.7,8.7,3.6c7.4,2.5,16.1,2.6,23,6.1"/>
			<path class="st7" d="M188.7,457.8c3.8,0.7,7.5,2.6,11.2,3.7c7,2,15.1,3.9,22.4,4.3"/>
		</g>
		<g>
			<g>
				<path class="st6" d="M129,403c-2.6-3.5-6.2-5.4-10.3-8.7c-4.3-3.5-8.4-7.3-13.3-9.9c-5.2-2.7-11.8-6.4-18-6.2
					c-6.2,0.3-11.8,5.9-16.9,9.5c-7.6,5.4-15,10.4-22.8,15.4c-13,8.3-19.3,12.7-23.6,27.5c-2.8,9.7-12.1,21.8-5.4,30.5
					c5.4,6.9,14.5,10.8,21.6,15.9c6.3,4.6,16.2,11.5,23.8,11.7c8.4,0.3,15.9-4.1,24.2-4.1c7.1,0,17.2,2.1,22.6-3.1
					c6.7-6.5,12.4-18.1,17.3-26.2c7.3-12.5,7.4-32.1,3.8-45.9C131.4,406.7,130.4,404.6,129,403z"/>
				<path class="st4" d="M113.6,413.9c-3.2,5.7-11.2,11.4-16.1,16.1c-7,6.7-14.9,11.3-23.1,16.5"/>
				<path class="st4" d="M31.9,439.8c3.7,7.7,17.7,14.7,25.4,15.9"/>
				<path class="st7" d="M65.5,457.4c-1.2,6.2,10.5,14.4,14.4,19.6"/>
				<path class="st7" d="M39.4,452.6c3.6,1.6,10.3,6.7,13.2,9.6"/>
				<path class="st7" d="M31.4,448.2c0,4.5,3.5,8.5,7.2,10.1"/>
				<path class="st7" d="M25.9,445.6c0.6,3.2,0.8,4.3,3.1,6.3"/>
				<path class="st7" d="M72.3,460.9c4.9,6.2,9.8,12.4,15.2,18.5"/>
				<path class="st7" d="M90,475.1c0.6,1.6,1.8,3,3.5,3.7"/>
				<path class="st7" d="M117.8,424.4c-4,0.3-8.2-0.5-12.4-1c-5.1-0.7-12.8-4.2-17.3-3"/>
				<path class="st7" d="M115.9,419.6c-12.2,0.7-25.9-2.8-38.1-4.4"/>
				<path class="st7" d="M106.2,413.7c-14.8,1.3-35.2-7.6-49.5-2"/>
				<path class="st7" d="M101.6,405.9c-2.6,3.8-26.2,0.3-31.7,0.5c-7.3,0.3-14.9-1-22,1"/>
				<path class="st7" d="M92.2,401.7c-8.3,2.6-15.1-0.5-39.9,2.6"/>
			</g>
			<path class="st7" d="M30.8,424.1c0,4.6-0.1,8.7,2.9,12.5"/>
			<path class="st7" d="M34.6,427.7c0,5.9,4.8,16.1,9.6,19.5"/>
			<path class="st7" d="M41.7,432.5c0.3,5.3,4,15,9.3,17.3"/>
			<path class="st7" d="M50,438.5c1.2,6.2,6,10.8,10.9,14.4"/>
			<path class="st7" d="M59.9,440.5c2,5,6,9.3,9.9,12.8"/>
		</g>
		<path class="st7" d="M121.2,300.8c0.2,4.5,6.2,9.3,9.3,11.8"/>
		<path class="st7" d="M121.5,310.7c3,6.1,12,12.7,18.6,13.7"/>
		<path class="st7" d="M117,310c-0.9,10.9,17,19.6,25,22.4"/>
		<path class="st7" d="M113.5,316.5c5.9,12,19.6,23.6,33.6,23.4"/>
		<path class="st7" d="M137.5,335c5.2,2,10.3,4.1,15.7,5.8"/>
		<path class="st7" d="M117,332.8c5.5,5.8,11.8,8.4,18.9,11.8"/>
		<path class="st7" d="M132.7,339.2c2.9,4.4,8.6,7.8,13.5,9.6"/>
		<path class="st7" d="M110.3,328c0.4,7.7,10.2,17,16.1,20.9"/>
		<path class="st7" d="M124,343.4c1.5,1.6,7.6,9.9,11.5,10.9"/>
		<path class="st7" d="M109.6,336.6c0.8,5.8,5.1,13.8,10.6,16.3"/>
		<path class="st7" d="M119,348.2c1.8,3.6,4.5,6.5,7.4,9.3"/>
		<path class="st7" d="M108.7,347.5c1,3.9,3.8,9.1,8,10.3"/>
		<path class="st7" d="M115.4,353.7c1.5,3,4.3,6.1,6.7,8.4"/>
		<path class="st7" d="M107,356.2c0.6,3.4,3.7,7.3,7.4,7"/>
		<path class="st7" d="M113.5,358.1c0.9,1.5,2.2,2.8,3.2,4.1"/>
		<path class="st7" d="M105.5,362.6c0.8,3.1,4,6.1,6.7,7.7"/>
		<path class="st7" d="M107.4,370.6c0.2,1,0.8,1.9,1.6,2.6"/>
		<path class="st9" d="M272,567.3c0.6-0.9,1.2-1.7,1.8-2.5c-2.9,4.5-10.1,6.9-15.5,8.4c-9.6,2.7-20.9,2.6-31,2.8
			c-40,0.7-87.8-9.8-93.9-11.1c-2.9-0.6-3.8-1.2-6.9-0.2c-5.2,1.6-9.5,2.8-15,4c-19.3,4.4-38.6,7.1-58.8,5.2
			c-8.8-0.9-18.3-2.7-26.2-5.8c-3-1.1-16.7-3.7-14.8-7.1V447.7c-1.9,3.4,11.8,6.1,14.9,7.2c8,3.1,17.4,4.9,26.2,5.8
			c20.1,1.9,39.5-0.8,58.8-5.2c5.6-1.2,9.9-2.4,15-4c3.1-1,4-0.4,6.9,0.2c6.1,1.2,53.9,11.6,93.9,11.1c10.2-0.2,21.4-0.1,31-2.8
			c5.4-1.4,14.2-6.7,13.7-5.9L272,567.3L272,567.3z"/>
		<path class="st4" d="M15.5,451.5c3.9,3.8,7.8,2.2,11,3.4c8,3.1,17.4,4.9,26.2,5.8c20.1,1.9,39.5-0.8,58.8-5.2
			c5.6-1.2,9.9-2.4,15-4c3.1-1,4-0.4,6.9,0.2c6.1,1.2,53.9,11.6,93.9,11.1c10.2-0.2,21.4-0.1,31-2.8c5.4-1.4,11.2-5.5,10.6-4.6"/>
		<line class="st3" x1="7.3" y1="427.7" x2="25" y2="427.7"/>
		<line class="st3" x1="269.8" y1="427.7" x2="287.6" y2="427.7"/>
		<path class="st7" d="M8.2,447.2c2.4-3.5,6.3-4.7,9.6-6.7"/>
		<path class="st7" d="M7.7,439.5c3.4-1.1,6.6-2.3,10.1-3.4"/>
		<path class="st7" d="M13,455.4c6.9,4.1,14.8,7.1,23.1,8.2"/>
		<path class="st7" d="M48.1,465.9c5.3,1.7,29,0.4,35.1-1"/>
		<path class="st7" d="M100,462.6c8.3-2.6,11.8-2.4,16.8-2.4"/>
		<path class="st7" d="M128.9,459.2c7.7,0.3,14.9-0.1,22.6,1"/>
		<path class="st7" d="M169.2,464c4.4,1.3,10.3,1.5,15,1.9c7.8,0.6,16.1,2.5,23.9,2.4"/>
		<path class="st7" d="M235.1,468.8c12.9-1.2,26.9-1.4,38-9.1"/>
		<path class="st7" d="M280.3,455.4c0-1.2,0-2.6,0-3.8"/>
		<path class="st7" d="M270.6,441.4c4.3-0.4,10.5,2.5,12,6.7"/>
		<path class="st7" d="M274.5,437.6c4.2,1.2,11.4,6.5,13.9,10.1"/>
		<path class="st7" d="M292.8,457.3c-1.3,7.5-13.4,11.9-19.2,14.9"/>
		<path class="st7" d="M247.6,478c-17.3,3.9-36.9,3.7-54.3,0.5"/>
		<path class="st7" d="M77.4,473.1c7.7-3.3,18.8-3.6,27.3-4.7c11.6-1.5,22.9-3.5,34.7-3.5"/>
		<path class="st7" d="M148.6,465.5c8.5,2.6,18.2,3.2,26.9,5.8"/>
		<path class="st7" d="M10.6,464.5c4.9,4.3,10.4,4.2,16.3,6.7"/>
		<path class="st7" d="M32.7,471.2c4.2,1.4,10.9,1.2,15.4,1"/>
		<path class="st7" d="M51.9,472.2c3.4,0,6.7,0,10.1,0"/>
		<path class="st7" d="M30.8,477c6.7,4.4,24.1,4.1,32.2,4c6.3,0,18.5-3.7,34.3-6.3"/>
		<path class="st7" d="M103.9,475.1c14,0,28.2-1,42-0.7c20.7,0.5,39.5,11.7,59.9,13.6"/>
		<path class="st7" d="M218.5,488.5c13.2,0.3,37.8-7.7,50.5-8.9"/>
		<path class="st7" d="M22.3,480.3C49,495.6,81,484.5,98,482.7c13.1-1.3,28.7-3.7,41.8-1.8c8.1,1.2,16.2,4.5,24,6.9
			c11.9,3.7,26.2,6.5,42.5,7.5"/>
		<path class="st7" d="M67.3,501.3c33-12.3,67.1-11.7,78.4-9.3c13.6,2.9,26.5,8,40.1,11.1c18.8,4.3,48.5,8.3,77.5-4.7"/>
		<path class="st7" d="M181.7,497.7c36,8,54.8,2.3,63.2-0.2c11.2-3.4,22.7-9.1,32.7-15.4"/>
		<path class="st7" d="M282.7,494.3c-7.3,14.5-28.8,23.5-43.6,26c-25.3,4.3-48.4-4.1-72.4-10.6"/>
		<path class="st7" d="M113,498c26.7-4.3,74.5,10.7,100.7,16.3"/>
		<path class="st7" d="M116.3,509.7c26.7-0.7,52.8,10.9,58.9,12.9c12.7,4.2,24.9,6.5,38.3,7.7"/>
		<path class="st7" d="M231.4,530.1c8,0.6,17.6-0.8,25.3-2.9c8.3-2.3,13-8,20.2-11.8"/>
		<path class="st7" d="M275,526.3c-14.5,14.4-38.1,17.1-57,14.1"/>
		<path class="st7" d="M137.8,518.6c7.3-0.4,17.7,4.6,24.3,7.4c10.9,4.7,21.7,8.2,32.8,12.4"/>
		<path class="st7" d="M155,530c10.7,5.3,36.8,15.3,46.2,16.1c12.9,1.1,25.4,2.6,38.5,2.6"/>
		<path class="st7" d="M198.7,550.7c12.5,2.8,25.9,3.3,38.6,3.2c11.8-0.1,18.2-5.6,28.6-8.9"/>
		<path class="st7" d="M163.5,546.2c12.2,4.1,22.4,10.2,35.9,10.9"/>
		<path class="st7" d="M215.4,560.3c9.2,0,18.6,0.5,27.7-0.7c9.6-1.2,16.1-7.2,24.9-9.6"/>
		<path class="st7" d="M29.7,513.3c16.6,5.1,39-6,70-9"/>
		<path class="st7" d="M130.8,518c-20-2.4-52.4-5-70.1,6.3"/>
		<path class="st7" d="M45,539c11-8.7,34.8-16.8,45.3-15.7"/>
		<path class="st7" d="M53.2,546.9c24.5-13.2,65.9-14.6,85.8-10.2"/>
		<path class="st2" d="M162.5,237.2c-6.7-9.4-10.3-18.6-20.2-25.5c1.2,6.3,2.2,17.2,6.4,22.1C152.2,237.8,158.1,238.1,162.5,237.2z"
			/>
		<path class="st2" d="M162.5,237.6c0.2-7.8,10.8-33.1,18.6-34.5c0.6,7.8-2.8,15.2-6.6,21.8C171.4,230.3,166.1,233.4,162.5,237.6z"
			/>
		<path class="st4" d="M162.5,233.8c-7.1-9.3-9.2-24.7-11.9-36.2c-3.5-14.8-9.5-32-8.7-47.4"/>
		<path class="st4" d="M163.5,233.3c-0.4-8.8-4.2-18-5.2-27c-1.2-11.5-3.4-23.4-3-35"/>
		<path class="st2" d="M223.1,226.6c3.7-8.8,12.8-15.4,21.1-20.1C245.8,218.7,231.8,228,223.1,226.6z"/>
		<path class="st4" d="M222.1,222.7c3.4-8,3.9-18,5.7-26.3c3.4-16.3,8.9-31.9,11.2-48.6"/>
		<path class="st4" d="M221.6,227.1c3.1-2.4,4.9-8.8,6.5-12.5c5.1-11.3,7.9-28.9,11.4-40.9"/>
		<path class="st7" d="M199,236.7c5.1,3.1,12.8,6.1,14.6,13.9"/>
		<path class="st7" d="M205.8,245.8c5.3,3.4,11.6,10.7,13,16.8"/>
		<path class="st10" d="M213,246.4c-0.8-0.8,2.6-4.4,4.3-5.3c0.6,3.7-2.3,6.2-3.3,9.4c3.9-2.8,8.7-7.5,13.4-8.5
			c-2.9,4.4-10,6.9-11.9,12"/>
		<path class="st4" d="M216.6,256.1c2.4-3.1,7.3-5.5,11.1-6.2"/>
		<path class="st4" d="M207.4,365.5c-1.1-0.4,7.4-27.2,8-29.3"/>
		<path class="st4" d="M212.8,371.1c0,0,8.7-14.8,12-20.6c11.6-21,18.2-43.9,28.1-65.8"/>
		<path class="st4" d="M221.6,381.8c1.6-12,3.5-20.3,4.7-32.4c2.1-20.6,1.9-42.3,7.8-62.3"/>
		<path class="st7" d="M150.3,201.4c0.6-4.4-7.1-8.4-10.9-8.3C139.3,196.5,146.9,206.4,150.3,201.4z"/>
		<path class="st11" d="M151,199.5c0.9-3.7,1.7-10.9,6.6-11.8C159,190.4,155.1,198.7,151,199.5z"/>
		<path class="st12" d="M148.4,191.8c-5.6,2.5-12.2-2.1-14.8-7C137.3,187.8,143.6,187.5,148.4,191.8z"/>
		<path class="st12" d="M148.4,189.3c0.1,0.4,0.3,0.8,0.3,1.2c-0.3-3.7,1.5-11.5,4.5-13.7C157.5,180.4,152,188,148.4,189.3z"/>
		<path class="st12" d="M146.8,187c-1.2,0.5-7.8-11.6-12.8-11.4c-0.6,2.8,2.8,6.6,4.7,8.6C141.2,186.7,142.9,187,146.8,187z"/>
		<path class="st12" d="M147.1,181.6c0.6-3.8,4.6-12.7,8.6-14C156.7,173.4,149.8,179.5,147.1,181.6z"/>
		<path class="st12" d="M145.2,178.7c-0.4-3.5-7.5-13.7-12.1-13.1c0.3,2.8,3.1,6.1,5.1,8C140.4,175.8,141.7,175.7,145.2,178.7z"/>
		<path class="st12" d="M145.5,173.2c-0.6-3.7,4.4-10.4,7.1-12.7C152.4,166.7,149.3,171.5,145.5,173.2z"/>
		<path class="st12" d="M142,167.7c-0.1-3.3-5.2-11.8-8-13.8C130.8,157.5,137.7,168,142,167.7z"/>
		<path class="st12" d="M142.6,165.8c-0.4-2.8,3.3-12,5.8-13.5C151.5,156.1,148.7,166.8,142.6,165.8z"/>
		<path class="st12" d="M141.1,157.6c-3.7-1-3.8-8.5-7-10.6c-0.2,3.7,2.3,11.6,7,11.5"/>
		<path class="st12" d="M141.3,156.9c0.2-4.6,3.1-8.7,4.5-12.8c0.4,0,0.8,0,1.2,0C147.4,150.2,145.5,154.4,141.3,156.9z"/>
		<path class="st12" d="M228.8,193.4c3.4-5.1,11.7-7.9,12.5-15.2C237.3,179.9,231.5,188.2,228.8,193.4z"/>
		<path class="st11" d="M228.8,186.7c-1-3.7-5.2-12.8-9.9-12.8c-0.6,3.4,2.3,8.1,4.3,10.6C225.2,186.7,227.8,186.7,228.8,186.7z"/>
		<path class="st12" d="M230.1,180.2c-3.4-6.1-6.2-10.9-5.7-18.3c3,2.1,5.1,4.6,6,8.4C230.9,172.7,230.6,179.7,230.1,180.2z"/>
		<path class="st12" d="M231,180.6c1.6-0.9,3.6-6.2,5.3-8.2c2.1-2.4,4.9-4.7,7.4-6.5c0.8,3.7,0.9,6.5-1.8,9.8
			C239.1,179.1,234.7,181.1,231,180.6z"/>
		<path class="st12" d="M233.3,169.1c-5.2-2.5-4.9-10.4-5.4-15.6C233.9,156.9,233.9,163.7,233.3,169.1z"/>
		<path class="st12" d="M234.9,168.1c-1.2-2.6,6.3-11.1,9.2-11.2C245,163.4,239.7,167.8,234.9,168.1z"/>
		<path class="st12" d="M236.2,158.5c-2.8,1.1-6.1-11.1-5.7-13.7C237.1,145.9,235.7,154.8,236.2,158.5z"/>
		<path class="st12" d="M237.5,157.2c2-3.5,5.6-10,9.5-11.2C248.1,152.2,241.5,155.7,237.5,157.2z"/>
		<path class="st7" d="M146.4,220.6c1.4,2.9,3.3,6.1,5.2,8.9c1.7,2.6,3.9,4.6,5.7,7"/>
		<path class="st7" d="M174.3,216.2c-1.3,6.3-7.1,11.1-10.6,16.3"/>
		<path class="st7" d="M241,212.3c-2.5,5.8-11,8.7-15.1,13.2"/>
		<path class="st7" d="M247.8,227.1c-2.9,3.7-8.5,2.8-11.8,5.5"/>
		<path class="st7" d="M82.4,368.7c0.9-3.9,3.3-8.3,4.8-12.2"/>
		<path class="st7" d="M62.5,365.8c3.7,0.2,10.1,3,13.5,4.8"/>
		<path class="st7" d="M76,357.1c1.4-3.9,3.5-8.4,5.5-12.2"/>
		<path class="st7" d="M58.7,353.3c4.1,0.2,8,3.5,12.2,3.6"/>
		<path class="st7" d="M70.5,342.1c3-1.1,3.8-8,5.8-10.6"/>
		<path class="st7" d="M53.9,336.4c5.3,0.6,9.6,4.6,14.4,6.7"/>
		<path class="st7" d="M65.4,330.9c2.8-2.8,3.4-8.7,6.7-10.9"/>
		<path class="st7" d="M50,322.5c3.3,1.8,7.1,3.5,10.6,4.5"/>
		<path class="st7" d="M60.3,317.4c3-2.8,3-7.5,5.8-10.3"/>
		<path class="st7" d="M44.9,310.7c3.8,1.4,10.7,4.6,13.2,8"/>
		<path class="st7" d="M39.2,298.5c3.1,1.5,6.8,2.8,9.9,4.5"/>
		<path class="st7" d="M55.8,304.9c1.6-2,1.3-5.5,2.9-7.7"/>
		<path class="st4" d="M161.5,348.9c1.1,1.1,0.4-2.2,0.6-4.4c1.8-19.5-0.9-39.7,1.9-59"/>
		<path class="st4" d="M156.4,346.3c-3.7-15.8-10.5-34.1-16.2-49.3"/>
		<path class="st4" d="M145.5,346.9c0,0,1.8-11.9,2.2-17.4c1.1-14,5.8-46,6.2-60"/>
		<path class="st4" d="M264.7,416.1c-1.3-2.5,1.2-6.8,2.1-9.8c3.6-12.4,6.5-26.1,8.1-38.8"/>
		<path class="st4" d="M261.5,401.3c1-8.2,5-16.3,7-24.3"/>
		<path class="st4" d="M43,405.2c-4.1-9.8-10.8-27.2-12.2-39.7"/>
		<path class="st4" d="M36.1,410.3c-3.2-4.9-7.7-11.1-9.7-16.7"/>
		<path class="st4" d="M50.2,401.7c0.3-7.4-0.8-17.8-0.8-25.2"/>
		<path class="st10" d="M183.3,351.9c1-5.1,0.2-11.1,1.4-16.1c0,5.5-0.5,11.1,1.9,16.1c-0.2-4.2,2-8.5,3.8-12.2
			c-0.1,6-0.5,10.8-1,16.6"/>
		<path class="st10" d="M241.2,413.9c1.9-8.7,4.7-18.6,5.3-27.1c-0.9,9.3-1,19.1-4.2,27.9c0.7-3.3,4.4-10.2,7-11.9
			c0.4,5.2-4,9.8-5.3,14.7c2.7-4.6,6.4-9.8,10.1-13.7c-0.9,3.1-8.6,17.5-10.1,16.7"/>
		<path class="st10" d="M62.5,391c1.1-1.2-5-12.4-6.7-15.2c0.7,6.3,5.8,11.8,5.3,17.6c-2.9-1.3-4.5-2.7-7-4.8
			c1.9,2.4,3.4,4.7,5.6,6.8"/>
		<path class="st10" d="M118.1,393.7c9-2.5,13.2-15.5,19-21.8c-2.8,5.9-5.1,11.4-10.1,15.9c-2.5,2.3-6,4.3-8.2,6.6
			c5.9-1.5,10.5-6,15.9-8.3c-2.4,4.6-9.4,7.4-13.6,10c4.3-0.1,8.3-3.9,12.7-3.6C132.4,396.3,126.6,397.8,118.1,393.7z"/>
		<path class="st10" d="M148.6,239.9c-2.5,1.6-11.4-7.2-13.4-9.3c1.3,4.8,8.2,5.8,9,10.3c-4.9,0.3-9.5-2.9-14.3-3
			c4,3.7,9.3,1.7,13.5,3.4c-4.3,2.7-8.3,4.4-13.8,3.9c3.6,0.6,8.8-4.1,9.5-3.4"/>
		<path class="st10" d="M237,238.1c3.7,2.5,8.7-3.9,11.8-5.8c-2.2,4.4-6.6,7.8-11.7,7.2c4.3,0.1,8.7-1.8,12.8-1.3
			c-1.7,3-6.4,4.9-10,5.2c4-0.9,8.3-1.2,12.2-2.5c-2.8,2.9-7.7,1.9-11.3,1.9"/>
		<path class="st7" d="M204.8,92.5c1.8,3.5-9.3,19.3-12.7,23.7c-5.7,7.5-12.2,17.7-14,26.8c-1.6,8.2-4.1,15.3-7.5,23.1
			c-2,4.9-5.3,11.9-5.8,17.2"/>
		<path class="st7" d="M185.6,92c-3.6,11.4-1.8,24.1-1.4,35.6"/>
		<path class="st7" d="M183.2,109.3c-0.2,3.1,4.4,8.4,6.7,11.1"/>
		<path class="st7" d="M172.1,162c0.5,10.2,6.8,21.1,11.2,30c3.5,7.2,7.4,16.9,14.1,21.5"/>
		<path class="st7" d="M176,151.8c-0.2,9.1,3.5,19.5,6.5,28.1c1.5,4.3,1.1,9,2.1,13.3c0.7,0,1.4,4.2,1.8,4.5"/>
		<path class="st7" d="M156.6,76.1c0.7,1.3,1.6,2.4,2.6,3.4"/>
		<path class="st7" d="M157.4,85.5c0.9-0.4,1.8-0.8,2.7-1.2c2.2-1,3.8-1.7,6.1-2.1c1.4-0.2,2.7-0.5,4-1c0.4-0.1,0.9-0.3,1.3-0.2
			c0.4,0.1,0.7,0.5,1.1,0.8c0.3,0.3,0.9,0.5,1.2,0.3"/>
		<path class="st7" d="M161.8,77.6c-0.5,1-0.3,2.3,0.5,3.2c0.5,0.5,1.2,0.9,1.5,1.6"/>
		<path class="st7" d="M173.2,82.8c-1.1,1.5-0.4,3.6,0.3,5.3c0.1,0.1,0.1,0.3,0.2,0.4c0.2,0.2,0.6,0.2,0.9,0.2
			c0.7-0.1,1.5-0.2,2.2,0s1.4,0.8,1.4,1.5c0,0.5-0.2,1-0.5,1.5c-1.5,3.2-0.8,7.2,1.7,9.7c1.1,1.1,2.5,1.9,3.5,3"/>
	</g>
</g>
<line class="st13" x1="113.7" y1="134.1" x2="286.6" y2="212.8"/>
<line class="st13" x1="9.2" y1="86.5" x2="82.2" y2="119.8"/>
<line class="st13" x1="63" y1="171" x2="271.8" y2="18.7"/>
<polyline class="st10" points="262.1,60.5 174.8,121.4 271.8,168.2 "/>
<line class="st14" x1="188" y1="112.2" x2="271.8" y2="153.9"/>
<line class="st13" x1="237.2" y1="300" x2="237.2" y2="536.1"/>
<line class="st13" x1="206.4" y1="296.7" x2="206.4" y2="529.7"/>
<line class="st14" x1="167.1" y1="285.3" x2="179.1" y2="278.8"/>
<line class="st10" x1="108.6" y1="252.3" x2="108.6" y2="287.1"/>
<line class="st10" x1="179.1" y1="312" x2="108.6" y2="287.1"/>
<line class="st14" x1="167.1" y1="285.3" x2="167.1" y2="307.8"/>
<polygon class="st10" points="89,298.3 89,264.3 108.6,252.3 179.1,278.8 179.1,312 159.4,322 "/>
<line class="st10" x1="89" y1="298.3" x2="108.6" y2="287.1"/>
<path class="st13" d="M72,174.8c2.9,0,5.6,2.2,6.8,4.9c1.2,2.7,1.2,5.7,1,8.7c-0.2,2.5-0.6,5-1.6,7.3c-2.7,6.4-10.4,10.1-17.1,8.4"
	/>
<line class="st14" x1="167.1" y1="285.3" x2="108.6" y2="263.7"/>
<path class="st10" d="M126.5,198c4.6,4.3,5.6,13.5,3.4,19.4c-1.6,4.3-9.6,13.6-14.4,9.1"/>
<path class="st10" d="M104,194.5c-0.6,0.2-5.9,1.8-5.5,5.2c0.4,3.3,4.3,3.3,7,4.5c2.4-1.7,4.8-3.8,7-5.8"/>
<g>
	<line class="st13" x1="268.7" y1="256.8" x2="286.6" y2="264.3"/>
	<line class="st13" x1="63" y1="171" x2="180.8" y2="220.2"/>
	<path class="st13" d="M170,247.8L32.2,193.4l-4.8-2.8c-4.2-3.3-6.9-8.5-6.9-14.3c0-5.8,2.7-10.9,6.9-14.3l5-3.9L213.5,18.7"/>
	<line class="st13" x1="286.6" y1="293.9" x2="260" y2="283.4"/>
</g>
<path class="st10" d="M122.3,88c-7.2,1.2-9.7,12.6-7.4,18.8c1.7,4.7,5.9,9.6,10.8,11.4c2.5,0.9,6.8,1.3,8.9-0.6"/>
<path class="st10" d="M127.3,84c-4.9,6.1-7.3,15.5-4.3,22.9c1.4,3.6,8.6,14.9,13.3,8.5"/>
<path class="st10" d="M138,114.7c-4.6,4.9-6.9-11.9-7.2-14.2c-0.7-5.7-0.7-14.6,2.2-19.5"/>
<path class="st10" d="M130,93.3c3.1,7.7,17.6,8.3,24.3,9"/>
<path class="st14" d="M149,108c-5.3,2.5-13.2,3.8-17.3-1.3"/>
<path class="st14" d="M130,100.7c0,1.8,7.7,3.7,9.8,4.2c3.7,0.7,7.5,0.3,11.2,0.2"/>
<path class="st14" d="M129.3,109.7c-3.4-5.8-4-12.1-4-18.7"/>
<path class="st14" d="M117,100.7c0-3.5-0.1-7.3,2-10.3"/>
<line class="st13" x1="169.1" y1="522" x2="286.6" y2="546.3"/>
<line class="st10" x1="169.1" y1="522" x2="169.1" y2="585.5"/>
<line class="st13" x1="169.1" y1="522" x2="128.8" y2="534.1"/>
<line class="st13" x1="128.8" y1="534.1" x2="128.8" y2="584.2"/>
<path class="st14" d="M206.5,292.5c0.1,0.2,0.2,4.1-0.1,4.2c-0.1-8,5.5-10.6,8.9-11c3.5-0.3,7.1-1.4,10.6-0.5
	c3.1,0.8,6.6,1.4,8.8,3.8c1.1,1.2,2.3,2.3,2.8,4c0.2,0.8,0,6.8-0.3,7"/>
<path class="st10" d="M237.5,300"/>
<path class="st10" d="M198.8,292.8c-1-2-0.9-4.2,0.5-5.9c4.2-5.2,11-5.5,17.1-6.4c3.1-0.4,6-0.4,9.2,0c2.9,0.4,6.3,0.6,9,1.8
	c0.8,0.3,1.4,0.9,2.2,1.2c1.1,0.5,2.5,0.6,3.5,1.3c2.5,1.9,3.7,5.4,4.3,8.2"/>
<path class="st10" d="M205.2,296.7"/>
<path class="st13" d="M244.5,293.1c0.5,2.2-0.6,3.7-2.3,4.9c-1.1,0.8-3.4,2-4.7,2"/>
<path class="st13" d="M205.2,296.7c-2.1,0.2-5.5-2-6.4-3.8"/>
<path class="st13" d="M198.2,290c1.1-5.1,0.8-10.8,1.3-16c0.3-2.9,0.7-6.7,0.3-9.4"/>
<path class="st13" d="M199.5,264c-4.9-0.6-10.3-3.4-14.6-5.8c-3.7-2.1-8-3.1-11.7-5"/>
<path class="st13" d="M178.3,218.7"/>
<path class="st10" d="M173.2,253c1-1,2.7-1.4,4-2.2c2.7-1.6,3.9-3.8,5.3-6.6c2.5-4.8,4.3-9.2,5.4-14.6c1-4.6,1.6-14.2-5.5-14"/>
<path class="st13" d="M182.4,215.7c-1.2,0-4.1,1.3-4.1,3"/>
<path class="st13" d="M172.2,253c-1.8,0.9-2.3-2.7-2.8-3.8"/>
<path class="st14" d="M172,248c5.2,0.9,7.5-10.7,8.2-14.1c0.4-2,4.2-13.4,1-13.8"/>
<path class="st13" d="M244.3,294.2c0-4.2-0.2-8.4,0-12.6c2,1.4,4.6,2.8,7,3.7c1.2,0.4,3.9,2,5.2,1.6c1.1-0.3,2.3-2.1,3-2.8
	c2.3-2.4,2.9-4.8,4-7.9c1.6-4.7,3.5-9.6,4.5-14.5c0.5-2.7,1.7-8.7-1.1-10.6"/>
<path class="st13" d="M183.2,215.5c-0.1-0.1-0.3-0.3-0.3-0.5c11.4,4.4,22.5,10.3,33.6,15.7c7.3,3.6,14.9,6.5,22.4,9.6
	c5.8,2.4,11.1,5.9,17.2,7.3c3.2,0.8,8.7,1.5,11,4.2"/>
<path class="st14" d="M202.8,264.8c0.9-0.8,1.8-1.4,2.8-2"/>
<path class="st14" d="M212,259.5c2.5-1.4,4.4-4.5,7.2-5.2"/>
<path class="st14" d="M223.2,251.5c1.5-2.1,3.6-4.8,5.2-6.5"/>
<path class="st14" d="M230,243c0.1-0.7,0.4-1.3,0.8-1.8"/>
<path class="st14" d="M243.5,276.2c0.2-1.5-1-2.9-1.5-4.2c-0.7-2.1-1.2-4.2-2-6.2"/>
<path class="st14" d="M239,262.2c-0.3-3.6-2.7-7.6-4-11"/>
<path class="st14" d="M234.2,249c-0.4-0.9-0.7-1.7-1-2.5"/>
<path class="st14" d="M232.8,243.8c-0.2-0.1-0.3-0.2-0.5-0.2"/>
<path class="st14" d="M152.3,321c2.1,2.8,3.1,8.1,4.3,11.7c1.7,5.3,3.1,10.6,4.7,15.8c1.8,5.7,8.1,12.9,12.4,16.8"/>
<path class="st14" d="M177,370.7c4.3,5.4,9.2,10.5,12.9,16.3c1.6,2.5,1.9,5.2,3.1,7.8c1.2,2.8,3.6,4.9,5.7,7.2"/>
<path class="st14" d="M199,402.3c1.9,0.6,4.8,3.6,6,5.3"/>
<path class="st14" d="M150.7,326.7c5.2,11.1-1,25.1,1.3,36.6c2,10,8.8,17.9,14.7,25.6c2.6,3.3,3.4,6.9,5.3,10.8"/>
<path class="st14" d="M179.3,374c-3,6.1-8.4,12.3-9.7,19"/>
<path class="st14" d="M151,326.7c0.2-0.1,1-3.6,1.3-4.7"/>
<path class="st14" d="M171.7,399.7c3.8,2.8,6.7,10.2,9.9,14.3c2.8,3.5,4,6.2,5.7,10.3"/>
<path class="st14" d="M182,416c-0.9,6.1-3.4,12.5-5,18.6c-1.5,5.7-1.7,11.3-2.7,17"/>
<path class="st14" d="M153.3,269c-2.5-1.8-3.6-5.8-5.2-8.4c-1.7-2.8-2.6-5.6-3.1-8.9c-0.7-4.5-0.4-9-2-13"/>
<path class="st14" d="M143.3,203.3c-2.2-3-1.3-12.8-1.3-17.2c0-5.5,0-11.1,0-16.6c-0.1-6.6-1.4-17.4-5.3-22.8"/>
<path class="st14" d="M142,190.7c-0.1-2.5,1.8-5.3,2.7-7.6c2.5-6,4.2-12.2,5.6-18.5c0.4-1.7,2.3-9.8,3.3-9.2"/>
<path class="st14" d="M149,151.3c-0.4,4,1.4,7.6,1.7,11.3"/>
<path class="st14" d="M181,118c3.8,0,6.9-0.1,10.3-3"/>
<path class="st14" d="M195.7,116.3c4.1-6.8,10.7-9.4,18.4-10c6.5-0.5,10.4,2.7,16.4,3.5c6.7,1,15.5-1.3,21.1-5.5
	c2.6-1.9,4.6-4.9,6.9-7.2c1.8-1.7,8.5-5.9,8.5-7.2"/>
<path class="st14" d="M261.7,81.7c-0.7,6-4.6,10.9-4.7,17"/>
<path class="st14" d="M260,101.3c-2.3,1.1-5.3,0.8-7.3,1.7"/>
<path class="st14" d="M223.3,108c6.3,2.2,16.3-4.1,22.3-0.3"/>
<path class="st15" d="M103.1,178.2c-1.4-1.6-5.1-2.8-7-1.2c-2,1.7,2.4,11.9,7.5,13.6c0.4,3.8-0.4,3.8,2.5,6.7
	c2.6,2.6,4.2,0.5,7.5,2.8c1.7,1.2,4.1,14.1,11.6,2.2c-0.9-2.5-7.2-3.1-9.3-6.6c-2.6-4.4-2.3-6.2-7.9-7.4
	C107,184.5,105.9,183,103.1,178.2z"/>
<path class="st14" d="M98.6,179c-0.4,0.9,0.2,2.1,0.7,2.8c1.3,1.7,2.4,2.4,4.4,3.3"/>
<path class="st14" d="M106.1,191.5c-0.2,0.6,0.7,1.7,1.1,2.3c1,1.5,1.6,1.3,3.6,1.3"/>
<path class="st14" d="M115.8,200c0.5,0.4,0.9,0.9,1.4,1.4c0.6,0.5,1.2,1.3,1.9,1.7c1.3,0.8,2.5,0.2,3.9,0.3"/>
<path class="st14" d="M100.4,201.8c0.5-0.9,3.1-3.6,4.2-4.1"/>
<path class="st14" d="M102.8,192.6c-0.1-0.3-2.9-0.1-3.7-0.1c-1.6,0-3.4,0.1-4.7,1.4c-1.7,1.8-2,4.8-1.3,7.2
	c0.9,2.9,3.8,4.8,6.6,5.3c2.9,0.6,7.6,1.5,10.4,0.3c1.6-0.7,2.5-1.7,2.3-3.5c-0.1-1.1-0.8-2.7-2-2.2"/>
<path class="st14" d="M111.1,206.1c0.4-0.1,0.8-0.1,1.1-0.2c-1.3,2.2-5.2,4.5-7.6,4.8c-2.9,0.4-5.4-0.6-7.9-1.8
	c-2.1-1-4-2.3-5.1-4.4c-0.7-1.3-1.7-3.4-1.3-4.8c0.4-1.2,1.8-3.1,2.6-4"/>
<path class="st14" d="M72.4,205.2c0,0,4.5,1.7,5.7,2.2c3,1.2,5.6,2.9,8.5,4.3c2.7,1.3,5.4,2.3,8.3,3.1c3,0.9,5.8,2.5,8.9,3.3"/>
<path class="st14" d="M106.5,219.4c2.5,0.2,5.3,2.8,7.6,3.9c1.5,0.7,4.2,0.7,5.4,2"/>
<path class="st14" d="M75.2,204c0,0,1.9,0.5,2.7,0.9c2.1,0.9,4.2,1.8,6.3,2.6c4.1,1.6,8,3.8,12.1,5.6c6.2,2.7,12.9,4.7,18.8,8.1
	c1.2,0.7,2.7,1.8,4.1,2c0.8,0.1,1.7-0.2,2.3,0.3"/>
<path class="st14" d="M102.5,212.8c6.1,2.3,12.6,4.3,18.4,7.5"/>
<path class="st14" d="M80.5,201.4c2.7,1,5.5,2.4,8.2,3.2"/>
<path class="st14" d="M232,288c-0.4,16.5-0.9,33.9,0.4,50.7c1.3,17.4,2.1,36.5,0.7,53.9c-0.2,2.8,0,12.6-2.3,14.1
	c-2.4-2.5-0.4-8.5,0-11.6c0.7-5,0.3-10.2,0.3-15.3c0.1-10.9,1.9-21.7,1-32.6c-0.4-4.8-0.4-16-0.4-21.9"/>
<path class="st14" d="M231,411.7c-1.3,2-1,5.6-1.3,8c-0.5,3.8-0.9,7.6-1.1,11.4c-0.1,2.3,0.8,10.5,2.7,4.8c1-3.1-0.8-7.5-1.1-10.5
	C229.9,422,230,418.5,231,411.7z"/>
<path class="st14" d="M229,443.3c0,29.6,4.1,60.5-1.3,89.4c0.2,0.6,0.3-0.1,0.7,0"/>
<path class="st14" d="M230.7,486c-1.1,8.9,2,18.6,2,27.7c0,4-0.1,8.1-0.3,12.1c-0.1,2.3-1.4,6.6,0.7,8.2"/>
<path class="st14" d="M192,538.7c-2.1,1.5-11.4,11.1-12.7,15"/>
<path class="st14" d="M179,554c0.9-0.6,15,8,17.2,9.5c3.8,2.6,7.6,5.6,10.5,9.1"/>
<path class="st14" d="M206.3,572.7c2.7-2.6,4.9-6.2,7.2-9.2c1.7-2.3,3.9-6.6,5.8-7.8"/>
<path class="st14" d="M191.3,538.3c2.1,0.5,5.7,3.2,8,4.5c3.6,2.1,7.1,3.8,10.7,5.6c3.1,1.5,6.4,4.7,9,6.9"/>
<path class="st14" d="M202.3,568.7c-1.9,0.5-4.5,2.6-5.9,3.9c-1.7-2.1-3.9-3.7-5.7-5.7c-1.5-1.7-2.6-4-4.4-5.2c1.1-1,2-1.5,3-2.4"/>
<path class="st14" d="M203.7,544.3c1.5-0.2,1.8-1.9,3.1-2.6c2.2-1.2,1.6-1.1,4.3-0.3c3.3,1.1,6.2,3.4,8.2,6.2
	c-1.6,1.5-2.3,3.5-3.6,5"/>
<path class="st14" d="M188.3,544c1.4,0.8,3-0.4,4.3-1.7c0.3,3.6,4.1,4,4.1,0.3"/>
<path class="st14" d="M191.7,545.7c0.4,2.2,2.5,2,4,0.7"/>
<path class="st14" d="M197.3,546.7c0.5-0.3,0.9-0.7,1-1.3"/>
<path class="st14" d="M134,543c0,0,2.6,21,2.1,31.3c4.8,0.3,8.7-0.6,13.2-1.6c4.6-1,9.5-0.8,14.1-1.7c0.5-11.7-0.4-24.3-1.3-35.9
	C155.4,534.8,134,543,134,543z"/>
<path class="st14" d="M137.3,547.3c-4.3-1.6,8.2-4,9.8-4.3c1.2-0.2,13.7-4.2,9.8,0.3"/>
<path class="st14" d="M138.3,552.7c-0.6-0.1-1-0.4-1.6-0.4c0.3-3.3,19-5.1,22.1-4.5c-0.1,0.7-0.6,0.9-1.3,1.3"/>
<path class="st14" d="M140.3,557.7c-0.6,0.4-1.7,0.5-2.6,0.3c0.1-3.4,19.5-6.6,22-3.3c-0.7,0.7-0.9,0.7-1.7,1.5"/>
<path class="st14" d="M140.3,563.7c-0.6,0.4-1.7,0.5-2.6,0.3c-0.4-2.6,10.8-3.3,13.1-3.6c4.5-0.6,13.6-3.7,7.2,2"/>
<path class="st14" d="M141,569.3c-4.9-2.7,6-3.3,7.3-3.3c4.1-0.2,8.2-0.5,12.3-0.3c-0.1,2.3-0.5,0.8-2,2.6"/>
<path class="st14" d="M158.8,537.3c-0.2,0.3-0.2,0.7-0.1,1.1c0.8,0,0.9-0.1,0.7-0.8c-0.3,0-0.3,0.1-0.5,0.2"/>
<path class="st14" d="M161,569.3c0.1,0.2,0,0.5-0.2,0.6c0.2,0,0.3,0,0.5,0c-0.1-0.2-0.4,0-0.5-0.1"/>
<path class="st14" d="M206,100.3c1.5,1.4,0.8,4.6,2,6.3"/>
<path class="st14" d="M180.3,254.3c3.8,0.5,5.3-5.8,6.7-8.3"/>
<path class="st14" d="M189,241.3c0.7-2.6,1.1-5.2,1-8"/>
<path class="st14" d="M192,226.3c0-0.7,0-1.3,0-2"/>
<path class="st14" d="M253,282.3c2.9,1.1,4.7-5.3,5.3-7.3"/>
<path class="st14" d="M260.7,269c0.6-2.5,1.5-5,1.3-7.7"/>
<path class="st14" d="M262.7,252.7c0-0.8-0.3-1.4-1-1.7"/>
<path class="st14" d="M202.7,279c1.1-2,6.1-3.6,8.3-3.3"/>
<path class="st14" d="M219.7,274.3c8.2,0,16,0.7,22,6.3"/>
<path class="st14" d="M92.8,290.2c-1.9,1.9,2,2.2,1.5-0.2c-0.6-0.4-1-0.3-1.5,0"/>
<path class="st14" d="M103.5,284.2c-1,0.4-1.1,2.1,0.4,2c1.6-0.1,0.7-1.9-0.1-2.3"/>
<path class="st14" d="M91.2,265.8c-0.3,1.3,0.5,1.8,1.7,1.5c0.3-1.3-0.3-2.4-1.5-1.5"/>
<path class="st14" d="M105.2,256.8c-0.6,0.5-0.9,1.2-1,2c1.3,0.3,2.3-0.5,1.9-1.9c-0.5-0.1-1,0-1.5,0.2"/>
<path class="st14" d="M158.8,282.2c1.3,3.1,4,5.7,5.7,8.8c0.9,1.6,1.6,3.3,2.6,4.7"/>
<path class="st14" d="M155,281.5c-0.5-0.8,0.8,1.4,1,1.8c0.7,1.3,1.5,2.6,2.3,3.9c1.1,1.9,2.3,3.5,3.4,5.4c1.5,2.4,2.9,7.1,5,8.5"/>
<path class="st14" d="M150.2,279.5c-0.5,1.5,3.8,6.2,4.8,8c1.5,2.8,3.2,5.5,4.6,8.4c1.6,3.2,3.5,8,5.4,10.4"/>
<path class="st14" d="M145.2,277.8c0,1.1,3.5,5.3,4.6,6.9c2,2.8,3.7,5.8,5.4,8.8c2.2,3.9,4.9,7.9,6.7,11.8"/>
<path class="st13" d="M139.5,276c-0.6,0.7,9.9,15.3,11.5,17.9c1.9,3.1,3,6.2,5.1,9.4"/>
<path class="st13" d="M130.2,273.1c0.8,1.8,2.8,5.8,3.8,7.7c1.7,3.2,3.3,6.5,5.1,9.6c1.7,3,3.1,5,4.6,8.1"/>
<path class="st13" d="M122.5,270.1c1.6,2.1,2.7,4.6,4.3,6.9c2,3,3.8,6,5.3,9.3c1.1,2.2,2.3,4.1,3.4,6.3c0.5,1,0.9,2,1.5,2.9
	c0.5,0.8,0.5,1.7,0.8,1.2"/>
<path class="st13" d="M116.5,268.1c1.1,2.4,3.4,5.6,4.7,8c1.7,3.4,3.3,7,5.2,10.2c1.2,2.2,2.9,5.2,4.6,7.6"/>
<path class="st10" d="M108.5,267.5c1.1,4.5,5.1,11.2,6.9,14.6c1.3,2.6,1.7,5.7,3.4,7.9"/>
<path class="st10" d="M163.6,284.5c0.7,0.5,1.3,2.4,1.8,3.3c0.5,0.9,1,1.1,1.2,2.1"/>
<path class="st10" d="M63.7,170c-0.4,2.4-4.5,5.1-6.3,6.7c-3.5,3.1-7.2,5.9-11.4,8.1c-7,3.7-15,8.1-22,1.8"/>
<path class="st14" d="M22.7,181.3c-0.1,2.7,3.6,3.4,5.7,4"/>
<path class="st14" d="M31.3,185.3c4.4,0.5,10.3-2.4,13.7-5"/>
<path class="st14" d="M50.7,176c0.8-0.7,1.8-1.3,2.7-1.7"/>
<path class="st14" d="M36,192.3c2.8-0.3,4.9-1.5,7.3-2.7"/>
<path class="st14" d="M48,186.3c2.1-1,4.1-3.2,5.7-5"/>
<path class="st14" d="M73,126.3c-2.1,5.5,1.3,11.1,5,15c3.2,3.3,12.9,8.5,17,4.3"/>
<path class="st14" d="M96.3,147c-7.5,3.6-14.4,7.5-21.5,0.4c-4.5-4.5-8.4-7.7-8.9-14.4"/>
<path class="st14" d="M67.3,130c3.4,5.9,4.3,11.5,10.3,15.7"/>
<path class="st14" d="M80.7,147c1.4,1.2,3.8,0.9,5.7,1.3"/>
<path class="st14" d="M90.3,151c-3.1,1.5-7,3.3-10.6,3c-3.7-0.3-6-2.5-9.1-4.3"/>
<path class="st14" d="M81.3,156.3c-10,2.8-21.2-8.6-23-17"/>
<path class="st14" d="M69,151.7c-3.9-3-9.8-8-9.3-13.3"/>
<path class="st14" d="M68.3,145.3c-3-1.5-5.5-4.8-6.3-8"/>
</svg>
