<svg xmlns="http://www.w3.org/2000/svg" viewBox="0 0 150 150"><defs><style>.cls-1{fill:#b3b3b3;}.cls-2{fill:#231f20;}.cls-3,.cls-9{fill:none;stroke-linecap:round;}.cls-3,.cls-6,.cls-7,.cls-8,.cls-9{stroke:#231f20;stroke-miterlimit:10;}.cls-3,.cls-8{stroke-width:0.5px;}.cls-4{fill:#e6e7e8;}.cls-5{fill:#939598;}.cls-6,.cls-8{fill:#d1d3d4;}.cls-7{fill:#58595b;}.cls-9{stroke-width:0.75px;}</style></defs><title>breakbarr</title><g id="Layer_2" data-name="Layer 2"><g id="Layer_1-2" data-name="Layer 1"><g id="sliders"><rect class="cls-1" x="0.5" y="0.5" width="149" height="149"/><path class="cls-2" d="M149,1V149H1V1H149m1-1H0V150H150V0Z"/><circle class="cls-3" cx="5.38" cy="4.88" r="2.69"/><path class="cls-4" d="M5.38,3.44a2.33,2.33,0,0,1,2,1.09,2.05,2.05,0,0,0-4.05,0A2.34,2.34,0,0,1,5.38,3.44Z"/><path class="cls-5" d="M5.38,6.4a2.33,2.33,0,0,0,2-1.09,2.05,2.05,0,0,1-4.05,0A2.34,2.34,0,0,0,5.38,6.4Z"/><circle class="cls-3" cx="144.63" cy="4.88" r="2.69"/><path class="cls-4" d="M144.63,3.44a2.33,2.33,0,0,1,2,1.09,2.05,2.05,0,0,0-4.05,0A2.34,2.34,0,0,1,144.63,3.44Z"/><path class="cls-5" d="M144.63,6.4a2.33,2.33,0,0,0,2-1.09,2.05,2.05,0,0,1-4.05,0A2.34,2.34,0,0,0,144.63,6.4Z"/><circle class="cls-3" cx="5.38" cy="144" r="2.69"/><path class="cls-4" d="M5.38,142.56a2.35,2.35,0,0,1,2,1.09,2.05,2.05,0,0,0-4.05,0A2.36,2.36,0,0,1,5.38,142.56Z"/><path class="cls-5" d="M5.38,145.53a2.35,2.35,0,0,0,2-1.09,2.05,2.05,0,0,1-4.05,0A2.36,2.36,0,0,0,5.38,145.53Z"/><circle class="cls-3" cx="144.63" cy="144" r="2.69"/><path class="cls-4" d="M144.63,142.56a2.35,2.35,0,0,1,2,1.09,2.05,2.05,0,0,0-4.05,0A2.36,2.36,0,0,1,144.63,142.56Z"/><path class="cls-5" d="M144.63,145.53a2.35,2.35,0,0,0,2-1.09,2.05,2.05,0,0,1-4.05,0A2.36,2.36,0,0,0,144.63,145.53Z"/><path class="cls-2" d="M149,1V149H1V1H149m1-1H0V150H150V0Z"/></g><g id="breaker"><path class="cls-6" d="M125,83.75a11.25,11.25,0,0,1-9.51-4.68h-31a12,12,0,0,1-19,0h-31A11.25,11.25,0,0,1,25,83.75c-5.94,0-10.75-3.92-10.75-8.75a10.75,10.75,0,0,0,20.26,5h31a10.74,10.74,0,0,0,19,0h31a10.75,10.75,0,0,0,20.26-5C135.75,79.83,130.94,83.75,125,83.75Z"/><path class="cls-7" d="M125,64.25A10.74,10.74,0,0,0,115.49,70h-31a10.74,10.74,0,0,0-19,0h-31a10.75,10.75,0,1,0,0,10h31a10.74,10.74,0,0,0,19,0h31A10.75,10.75,0,1,0,125,64.25Z"/><path class="cls-8" d="M135.75,75a10.75,10.75,0,0,1-20.26,5h-31a10.74,10.74,0,0,1-19,0h-31a10.75,10.75,0,0,1-20.26-5c0,4.83,4.81,8.75,10.75,8.75,4.13,0,7.71-2.9,9.51-5.68h31c1.8,2.78,5.38,5.68,9.51,5.68s7.71-2.9,9.51-5.68h31c1.8,2.78,5.38,5.68,9.51,5.68C130.94,83.75,135.75,79.83,135.75,75Z"/></g><circle class="cls-9" cx="24.92" cy="46.53" r="4.58"/><circle class="cls-9" cx="125.08" cy="46.53" r="4.58"/><line class="cls-9" x1="123.08" y1="39.94" x2="123.08" y2="53.11"/><line class="cls-9" x1="127.08" y1="39.94" x2="127.08" y2="53.11"/><line class="cls-9" x1="70.34" y1="51.18" x2="79.66" y2="41.87"/><line class="cls-9" x1="79.66" y1="51.18" x2="70.34" y2="41.87"/></g></g></svg>