<svg xmlns="http://www.w3.org/2000/svg" viewBox="0 0 150 150"><defs><style>.cls-1{fill:#b3b3b3;}.cls-2{fill:#231f20;}.cls-11,.cls-12,.cls-3,.cls-6,.cls-7{fill:none;}.cls-10,.cls-11,.cls-12,.cls-3,.cls-6,.cls-7,.cls-8,.cls-9{stroke:#231f20;stroke-miterlimit:10;}.cls-12,.cls-3,.cls-7{stroke-linecap:round;}.cls-10,.cls-3,.cls-6{stroke-width:0.5px;}.cls-4{fill:#e6e7e8;}.cls-5{fill:#939598;}.cls-7{stroke-width:0.75px;}.cls-10,.cls-8{fill:#d1d3d4;}.cls-9{fill:#58595b;}</style></defs><title>Asset 11</title><g id="Layer_2" data-name="Layer 2"><g id="Layer_1-2" data-name="Layer 1"><g id="sliders"><rect class="cls-1" x="0.5" y="0.5" width="149" height="149"/><path class="cls-2" d="M149,1V149H1V1H149m1-1H0V150H150V0Z"/><circle class="cls-3" cx="5.38" cy="4.88" r="2.69"/><path class="cls-4" d="M5.38,3.44a2.33,2.33,0,0,1,2,1.09,2.05,2.05,0,0,0-4.05,0A2.34,2.34,0,0,1,5.38,3.44Z"/><path class="cls-5" d="M5.38,6.4a2.33,2.33,0,0,0,2-1.09,2.05,2.05,0,0,1-4.05,0A2.34,2.34,0,0,0,5.38,6.4Z"/><circle class="cls-3" cx="144.63" cy="4.88" r="2.69"/><path class="cls-4" d="M144.63,3.44a2.33,2.33,0,0,1,2,1.09,2.05,2.05,0,0,0-4.05,0A2.34,2.34,0,0,1,144.63,3.44Z"/><path class="cls-5" d="M144.63,6.4a2.33,2.33,0,0,0,2-1.09,2.05,2.05,0,0,1-4.05,0A2.34,2.34,0,0,0,144.63,6.4Z"/><circle class="cls-3" cx="5.38" cy="144" r="2.69"/><path class="cls-4" d="M5.38,142.56a2.35,2.35,0,0,1,2,1.09,2.05,2.05,0,0,0-4.05,0A2.36,2.36,0,0,1,5.38,142.56Z"/><path class="cls-5" d="M5.38,145.53a2.35,2.35,0,0,0,2-1.09,2.05,2.05,0,0,1-4.05,0A2.36,2.36,0,0,0,5.38,145.53Z"/><circle class="cls-3" cx="144.63" cy="144" r="2.69"/><path class="cls-4" d="M144.63,142.56a2.35,2.35,0,0,1,2,1.09,2.05,2.05,0,0,0-4.05,0A2.36,2.36,0,0,1,144.63,142.56Z"/><path class="cls-5" d="M144.63,145.53a2.35,2.35,0,0,0,2-1.09,2.05,2.05,0,0,1-4.05,0A2.36,2.36,0,0,0,144.63,145.53Z"/><path class="cls-2" d="M149,1V149H1V1H149m1-1H0V150H150V0Z"/></g><line class="cls-6" x1="65.49" y1="78.07" x2="65.49" y2="80"/><line class="cls-6" x1="84.51" y1="78.07" x2="84.51" y2="80"/><circle class="cls-7" cx="43.99" cy="25" r="4.58"/><circle class="cls-7" cx="43.99" cy="75" r="4.58"/><line class="cls-7" x1="41.99" y1="68.42" x2="41.99" y2="81.58"/><line class="cls-7" x1="45.99" y1="68.42" x2="45.99" y2="81.58"/><line class="cls-7" x1="39.34" y1="129.66" x2="48.65" y2="120.34"/><line class="cls-7" x1="48.65" y1="129.66" x2="39.34" y2="120.34"/><circle class="cls-7" cx="106.01" cy="25" r="4.58"/><circle class="cls-7" cx="106.01" cy="75" r="4.58"/><line class="cls-7" x1="108.01" y1="68.42" x2="108.01" y2="81.58"/><line class="cls-7" x1="104.01" y1="68.42" x2="104.01" y2="81.58"/><line class="cls-7" x1="110.66" y1="129.66" x2="101.35" y2="120.34"/><line class="cls-7" x1="101.35" y1="129.66" x2="110.66" y2="120.34"/><path class="cls-8" d="M83.75,25a11.25,11.25,0,0,1-4.68,9.51v31a12,12,0,0,1,0,19v31A11.25,11.25,0,0,1,83.75,125c0,5.94-3.92,10.75-8.75,10.75a10.75,10.75,0,0,0,5-20.26v-31a10.74,10.74,0,0,0,0-19v-31a10.75,10.75,0,0,0-5-20.26C79.83,14.25,83.75,19.06,83.75,25Z"/><path class="cls-9" d="M64.25,25A10.74,10.74,0,0,0,70,34.51v31a10.74,10.74,0,0,0,0,19v31a10.75,10.75,0,1,0,10,0v-31a10.74,10.74,0,0,0,0-19v-31A10.75,10.75,0,1,0,64.25,25Z"/><path class="cls-10" d="M80,34.51v31"/><path class="cls-11" d="M75,135.75a10.75,10.75,0,0,0,5-20.26v-31a10.74,10.74,0,0,0,0-19v-31a10.75,10.75,0,0,0-5-20.26"/><path class="cls-10" d="M80,84.51v31l-1.3-1.3v-31"/><path class="cls-10" d="M80,84.51c.17-.09.34-.18.5-.28l.25-.15a10.73,10.73,0,0,0,2.05-1.69.86.86,0,0,0,.13-.14,10.09,10.09,0,0,0,.78-1,.76.76,0,0,1,.08-.11,10.66,10.66,0,0,0,2-6.19,7.41,7.41,0,0,1-.84,3.41c-.12.22-.26.44-.4.66h0a8.48,8.48,0,0,1-.73,1l-.08.09a9.47,9.47,0,0,1-.78.77l-.13.12a10.71,10.71,0,0,1-1,.75,10.13,10.13,0,0,1-1.06.62l-.25.12c-.32.16-.66.3-1,.43L79.3,83l-.6.19Z"/><path class="cls-9" d="M70.07,115.46c-.19.1-.38.2-.56.31l-.25.15a10.73,10.73,0,0,0-2.05,1.69.86.86,0,0,0-.13.14,10.09,10.09,0,0,0-.78,1,.76.76,0,0,1-.08.11,10.71,10.71,0,0,0,0,12.38.76.76,0,0,1,.08.11,10.09,10.09,0,0,0,.78.95.86.86,0,0,0,.13.14,10.73,10.73,0,0,0,2.05,1.69l.25.15c.32.19.66.37,1,.53l.19.09a9.71,9.71,0,0,0,1.24.45l.28.07a8.89,8.89,0,0,0,1,.23l.37.05a9.3,9.3,0,0,0,2.72,0l.37-.05a8.89,8.89,0,0,0,1-.23l.28-.07a9.71,9.71,0,0,0,1.24-.45l.19-.09c.34-.16.68-.34,1-.53l.25-.15a10.73,10.73,0,0,0,2.05-1.69.86.86,0,0,0,.13-.14,10.09,10.09,0,0,0,.78-.95.76.76,0,0,1,.08-.11,10.71,10.71,0,0,0,0-12.38.76.76,0,0,1-.08-.11,10.09,10.09,0,0,0-.78-1,.86.86,0,0,0-.13-.14,10.73,10.73,0,0,0-2.05-1.69l-.25-.15"/><path class="cls-10" d="M82.92,132.25a10.09,10.09,0,0,0,.78-.95.76.76,0,0,1,.08-.11,10.66,10.66,0,0,0,2-6.19,7.41,7.41,0,0,1-.84,3.41c-.12.22-.26.44-.4.66h0a8.48,8.48,0,0,1-.73,1l-.08.09a9.47,9.47,0,0,1-.78.77l-.13.12a10.71,10.71,0,0,1-1,.75,10.13,10.13,0,0,1-1.06.62l-.25.12c-.32.16-.66.3-1,.43l-.19.08c-.41.14-.82.26-1.24.36l-.28.06a8.85,8.85,0,0,1-1,.18l-.37,0a11.6,11.6,0,0,1-2.72,0l-.37,0a8.85,8.85,0,0,1-1-.18l-.28-.06c-.42-.1-.83-.22-1.24-.36l-.19-.08c-.34-.13-.68-.27-1-.43l-.25-.12a10.13,10.13,0,0,1-1.06-.62,10.71,10.71,0,0,1-1-.75l-.13-.12a9.47,9.47,0,0,1-.78-.77l-.08-.09a8.48,8.48,0,0,1-.73-1h0c-.14-.22-.28-.44-.4-.66a7.41,7.41,0,0,1-.84-3.41,10.66,10.66,0,0,0,2,6.19.76.76,0,0,1,.08.11,10.09,10.09,0,0,0,.78.95.86.86,0,0,0,.13.14,10.73,10.73,0,0,0,2.05,1.69l.25.15c.32.19.66.37,1,.53l.19.09a9.71,9.71,0,0,0,1.24.45l.28.07a8.89,8.89,0,0,0,1,.23l.37.05a9.3,9.3,0,0,0,2.72,0l.37-.05a8.89,8.89,0,0,0,1-.23l.28-.07a9.71,9.71,0,0,0,1.24-.45l.19-.09c.34-.16.68-.34,1-.53l.25-.15a10.73,10.73,0,0,0,2.05-1.69A.86.86,0,0,0,82.92,132.25Z"/><path class="cls-12" d="M70,115.5l-.48.27-.25.15a10.73,10.73,0,0,0-2.05,1.69.86.86,0,0,0-.13.14,10.09,10.09,0,0,0-.78,1,.76.76,0,0,1-.08.11,10.71,10.71,0,0,0,0,12.38.76.76,0,0,1,.08.11,10.09,10.09,0,0,0,.78.95.86.86,0,0,0,.13.14,10.73,10.73,0,0,0,2.05,1.69l.25.15c.32.19.66.37,1,.53l.19.09a9.71,9.71,0,0,0,1.24.45l.28.07a8.89,8.89,0,0,0,1,.23l.37.05a9.3,9.3,0,0,0,2.72,0l.37-.05a8.89,8.89,0,0,0,1-.23l.28-.07a9.71,9.71,0,0,0,1.24-.45l.19-.09c.34-.16.68-.34,1-.53l.25-.15a10.73,10.73,0,0,0,2.05-1.69.86.86,0,0,0,.13-.14,10.09,10.09,0,0,0,.78-.95.76.76,0,0,1,.08-.11,10.71,10.71,0,0,0,0-12.38.76.76,0,0,1-.08-.11,10.09,10.09,0,0,0-.78-1,.86.86,0,0,0-.13-.14,10.73,10.73,0,0,0-2.05-1.69l-.25-.15-.49-.28"/><line class="cls-11" x1="80" y1="84.51" x2="78.7" y2="83.22"/><path class="cls-10" d="M80,34.51v31l-1.3-1.3v-31"/><path class="cls-10" d="M80,34.51c.17-.09.34-.18.5-.28l.25-.15a10.73,10.73,0,0,0,2.05-1.69.86.86,0,0,0,.13-.14,10.09,10.09,0,0,0,.78-.95.76.76,0,0,1,.08-.11,10.66,10.66,0,0,0,2-6.19,7.41,7.41,0,0,1-.84,3.41c-.12.22-.26.44-.4.66h0a8.48,8.48,0,0,1-.73,1l-.08.09a9.47,9.47,0,0,1-.78.77l-.13.12a10.71,10.71,0,0,1-1,.75,10.13,10.13,0,0,1-1.06.62l-.25.12c-.32.16-.66.3-1,.43L79.3,33l-.6.19Z"/></g></g></svg>