<?xml version="1.0" encoding="utf-8"?>
<!-- Generator: Adobe Illustrator 22.0.0, SVG Export Plug-In . SVG Version: 6.00 Build 0)  -->
<svg version="1.1" id="Layer_1" xmlns="http://www.w3.org/2000/svg" xmlns:xlink="http://www.w3.org/1999/xlink" x="0px" y="0px"
	 viewBox="0 0 150 150" style="enable-background:new 0 0 150 150;" xml:space="preserve">
<style type="text/css">
	.st0{fill:#B3B3B3;}
	.st1{fill:#B3B3B3;stroke:#000000;stroke-miterlimit:10;}
	.st2{fill:#808285;}
	.st3{fill:#D1D3D4;}
	.st4{fill:#B3B3B3;stroke:#000000;stroke-width:0.5;stroke-miterlimit:10;}
	.st5{fill:none;stroke:#000000;stroke-width:0.5;stroke-miterlimit:10;}
	.st6{fill:#CCCCCC;stroke:#000000;stroke-width:0.5;stroke-miterlimit:10;}
	.st7{fill:#E6E7E8;}
	.st8{fill:#939598;}
</style>
<g>
	<rect x="0.5" y="0.5" class="st0" width="149" height="149"/>
	<path d="M149,1v148H1V1H149 M150,0H0v150h150V0L150,0z"/>
</g>
<rect x="37.5" class="st1" width="112.5" height="112.5"/>
<polygon class="st2" points="39.5,110.5 148,110.5 150,112.5 37.5,112.5 "/>
<polygon class="st3" points="148,2 39.5,2 37.5,0 150,0 "/>
<rect x="39.5" y="2" class="st4" width="108.5" height="108.5"/>
<line class="st5" x1="37.5" y1="0" x2="39.5" y2="2"/>
<line class="st5" x1="150" y1="0" x2="148" y2="2"/>
<line class="st5" x1="37.5" y1="112.5" x2="39.5" y2="110.5"/>
<line class="st5" x1="150" y1="112.5" x2="148" y2="110.5"/>
<rect x="0" y="0" class="st1" width="37.5" height="75"/>
<polygon class="st6" points="35.5,2 2,2 0,0 37.5,0 "/>
<rect x="2" y="2" class="st4" width="33.5" height="71"/>
<line class="st5" x1="0" y1="0" x2="2" y2="2"/>
<line class="st5" x1="37.5" y1="0" x2="35.5" y2="2"/>
<line class="st5" x1="0" y1="75" x2="2" y2="73"/>
<line class="st5" x1="37.5" y1="75" x2="35.5" y2="73"/>
<circle cx="56.2" cy="18.8" r="10.8"/>
<circle cx="56.2" cy="56.2" r="10.8"/>
<circle cx="56.2" cy="93.8" r="10.8"/>
<circle cx="93.8" cy="18.8" r="10.8"/>
<circle cx="93.8" cy="56.2" r="10.8"/>
<circle cx="93.8" cy="93.8" r="10.8"/>
<circle cx="131.2" cy="18.8" r="10.8"/>
<circle cx="131.2" cy="56.2" r="10.8"/>
<circle cx="131.2" cy="93.8" r="10.8"/>
<rect x="6" y="81" class="st6" width="25.5" height="25.5"/>
<rect x="8" y="83" class="st6" width="21.5" height="21.5"/>
<circle cx="18.8" cy="93.8" r="3.4"/>
<rect x="17.4" y="88.4" width="2.6" height="10.7"/>
<g>
	<g>
		<g>
			<circle class="st5" cx="5.4" cy="117.4" r="2.7"/>
			<path class="st7" d="M5.4,115.9c0.9,0,1.6,0.4,2,1.1c-0.2-1-1-1.7-2-1.7s-1.9,0.7-2,1.7C3.7,116.4,4.5,115.9,5.4,115.9z"/>
			<path class="st8" d="M5.4,118.9c0.9,0,1.6-0.4,2-1.1c-0.2,1-1,1.7-2,1.7s-1.9-0.7-2-1.7C3.7,118.5,4.5,118.9,5.4,118.9z"/>
		</g>
		<g>
			<circle class="st5" cx="144.6" cy="117.4" r="2.7"/>
			<path class="st7" d="M144.6,115.9c0.9,0,1.6,0.4,2,1.1c-0.2-1-1-1.7-2-1.7s-1.9,0.7-2,1.7C143,116.4,143.7,115.9,144.6,115.9z"/>
			<path class="st8" d="M144.6,118.9c0.9,0,1.6-0.4,2-1.1c-0.2,1-1,1.7-2,1.7s-1.9-0.7-2-1.7C143,118.5,143.7,118.9,144.6,118.9z"/>
		</g>
		<g>
			<circle class="st5" cx="5.4" cy="144" r="2.7"/>
			<path class="st7" d="M5.4,142.6c0.9,0,1.6,0.4,2,1.1c-0.2-1-1-1.7-2-1.7s-1.9,0.7-2,1.7C3.7,143,4.5,142.6,5.4,142.6z"/>
			<path class="st8" d="M5.4,145.5c0.9,0,1.6-0.4,2-1.1c-0.2,1-1,1.7-2,1.7s-1.9-0.7-2-1.7C3.7,145.1,4.5,145.5,5.4,145.5z"/>
		</g>
		<g>
			<circle class="st5" cx="144.6" cy="144" r="2.7"/>
			<path class="st7" d="M144.6,142.6c0.9,0,1.6,0.4,2,1.1c-0.2-1-1-1.7-2-1.7s-1.9,0.7-2,1.7C143,143,143.7,142.6,144.6,142.6z"/>
			<path class="st8" d="M144.6,145.5c0.9,0,1.6-0.4,2-1.1c-0.2,1-1,1.7-2,1.7s-1.9-0.7-2-1.7C143,145.1,143.7,145.5,144.6,145.5z"/>
		</g>
	</g>
	<g>
		<path d="M149,113.5V149H1v-35.5H149 M150,112.5H0V150h150V112.5L150,112.5z"/>
	</g>
</g>
</svg>
